<svg xmlns="http://www.w3.org/2000/svg" width="45" height="62" fill="none" viewBox="0 0 45 62">
  <path fill="#80D25B" fill-rule="evenodd" d="M37 19.422c0-8.836-6.492-16-14.5-16S8 10.586 8 19.422h29Z" clip-rule="evenodd"/>
  <path fill="#fff" fill-rule="evenodd" d="M28 9.422h2v2.063h-2V9.422Zm-13 0h2v2.063h-2V9.422Z" clip-rule="evenodd"/>
  <path fill="#80D25B" d="m18.34 5.907-3-5.156a1.475 1.475 0 0 0-2.058-.53c-.71.44-.94 1.39-.515 2.122l3 5.156c.427.733 1.348.97 2.058.53.71-.439.941-1.389.515-2.122Zm11 1.592 3-5.156c.426-.733.196-1.683-.515-2.122a1.475 1.475 0 0 0-2.058.53l-3 5.156c-.426.733-.195 1.683.515 2.123.71.44 1.632.202 2.058-.53Z"/>
  <path fill="#80D25B" fill-rule="evenodd" d="M14.071 51.297h-2.166c-2.117 0-3.834-1.763-3.834-3.954v-25.92h28.87v25.92c0 2.184-1.72 3.954-3.834 3.954H31.1V58.5c0 1.717-1.353 3.11-3.014 3.11-1.665 0-3.014-1.386-3.014-3.11v-7.203H20.1V58.5c0 1.717-1.353 3.11-3.014 3.11-1.665 0-3.014-1.386-3.014-3.11v-7.203ZM39 26.49c0-1.677 1.321-3.037 2.943-3.037 1.626 0 2.944 1.352 2.944 3.037v16.615c0 1.677-1.322 3.036-2.944 3.036-1.625 0-2.943-1.351-2.943-3.036V26.49Zm-39 0c0-1.677 1.321-3.037 2.943-3.037 1.626 0 2.944 1.352 2.944 3.037v16.615c0 1.677-1.321 3.036-2.944 3.036C1.318 46.14 0 44.79 0 43.105V26.49Z" clip-rule="evenodd"/>
</svg>
