<svg xmlns="http://www.w3.org/2000/svg" width="238" height="119" fill="none" viewBox="0 0 238 119">
  <rect width="222.198" height="105" x=".671" y="13.317" fill="#fff" rx="15" transform="rotate(-3.232 .67 13.317)"/>
  <rect width="210" height="105" x="9" y="11" fill="#70CDC5" rx="15"/>
  <path fill="#000" d="M47.71 23.94V45h-5.13V32.37L37.87 45h-4.14l-4.74-12.66V45h-5.13V23.94h6.06l5.91 14.58 5.85-14.58h6.03Zm12.45 21.27c-1.98 0-3.8-.46-5.46-1.38-1.64-.92-2.95-2.2-3.93-3.84-.96-1.66-1.44-3.52-1.44-5.58s.48-3.91 1.44-5.55c.98-1.64 2.29-2.92 3.93-3.84 1.66-.92 3.48-1.38 5.46-1.38s3.79.46 5.43 1.38c1.66.92 2.96 2.2 3.9 3.84.96 1.64 1.44 3.49 1.44 5.55 0 2.06-.48 3.92-1.44 5.58a10.27 10.27 0 0 1-3.9 3.84c-1.64.92-3.45 1.38-5.43 1.38Zm0-4.68c1.68 0 3.02-.56 4.02-1.68 1.02-1.12 1.53-2.6 1.53-4.44 0-1.86-.51-3.34-1.53-4.44-1-1.12-2.34-1.68-4.02-1.68-1.7 0-3.06.55-4.08 1.65-1 1.1-1.5 2.59-1.5 4.47 0 1.86.5 3.35 1.5 4.47 1.02 1.1 2.38 1.65 4.08 1.65ZM91.422 45h-5.13l-8.58-12.99V45h-5.13V23.94h5.13l8.58 13.05V23.94h5.13V45Zm16.499-14.4a3.73 3.73 0 0 0-1.65-1.59c-.7-.38-1.53-.57-2.49-.57-1.66 0-2.99.55-3.99 1.65-1 1.08-1.5 2.53-1.5 4.35 0 1.94.52 3.46 1.56 4.56 1.06 1.08 2.51 1.62 4.35 1.62 1.26 0 2.32-.32 3.18-.96.88-.64 1.52-1.56 1.92-2.76h-6.51v-3.78h11.16v4.77c-.38 1.28-1.03 2.47-1.95 3.57-.9 1.1-2.05 1.99-3.45 2.67-1.4.68-2.98 1.02-4.74 1.02-2.08 0-3.94-.45-5.58-1.35a9.961 9.961 0 0 1-3.81-3.81c-.9-1.62-1.35-3.47-1.35-5.55 0-2.08.45-3.93 1.35-5.55.92-1.64 2.19-2.91 3.81-3.81 1.62-.92 3.47-1.38 5.55-1.38 2.52 0 4.64.61 6.36 1.83 1.74 1.22 2.89 2.91 3.45 5.07h-5.67Zm17.631 14.61c-1.98 0-3.8-.46-5.46-1.38-1.64-.92-2.95-2.2-3.93-3.84-.96-1.66-1.44-3.52-1.44-5.58s.48-3.91 1.44-5.55c.98-1.64 2.29-2.92 3.93-3.84 1.66-.92 3.48-1.38 5.46-1.38s3.79.46 5.43 1.38c1.66.92 2.96 2.2 3.9 3.84.96 1.64 1.44 3.49 1.44 5.55 0 2.06-.48 3.92-1.44 5.58a10.27 10.27 0 0 1-3.9 3.84c-1.64.92-3.45 1.38-5.43 1.38Zm0-4.68c1.68 0 3.02-.56 4.02-1.68 1.02-1.12 1.53-2.6 1.53-4.44 0-1.86-.51-3.34-1.53-4.44-1-1.12-2.34-1.68-4.02-1.68-1.7 0-3.06.55-4.08 1.65-1 1.1-1.5 2.59-1.5 4.47 0 1.86.5 3.35 1.5 4.47 1.02 1.1 2.38 1.65 4.08 1.65Zm25.472-16.59c2.22 0 4.16.44 5.82 1.32 1.66.88 2.94 2.12 3.84 3.72.92 1.58 1.38 3.41 1.38 5.49 0 2.06-.46 3.89-1.38 5.49-.9 1.6-2.19 2.84-3.87 3.72-1.66.88-3.59 1.32-5.79 1.32h-7.89V23.94h7.89Zm-.33 16.62c1.94 0 3.45-.53 4.53-1.59s1.62-2.56 1.62-4.5-.54-3.45-1.62-4.53-2.59-1.62-4.53-1.62h-2.43v12.24h2.43Zm25.786-6.36c1.22.26 2.2.87 2.94 1.83.74.94 1.11 2.02 1.11 3.24 0 1.76-.62 3.16-1.86 4.2-1.22 1.02-2.93 1.53-5.13 1.53h-9.81V23.94h9.48c2.14 0 3.81.49 5.01 1.47 1.22.98 1.83 2.31 1.83 3.99 0 1.24-.33 2.27-.99 3.09-.64.82-1.5 1.39-2.58 1.71Zm-7.62-1.74h3.36c.84 0 1.48-.18 1.92-.54.46-.38.69-.93.69-1.65 0-.72-.23-1.27-.69-1.65-.44-.38-1.08-.57-1.92-.57h-3.36v4.41Zm3.78 8.4c.86 0 1.52-.19 1.98-.57.48-.4.72-.97.72-1.71s-.25-1.32-.75-1.74c-.48-.42-1.15-.63-2.01-.63h-3.72v4.65h3.78ZM200.129 53l-1.006-.336s.134-5.122-1.707-5.482c-1.206-1.413.178-60.315 4.584-.201a3.646 3.646 0 0 0-1.785 2.053 19.121 19.121 0 0 0-.086 3.966Z"/>
  <path fill="url(#a)" d="M200.613 48a18.041 18.041 0 0 0 6.189-8.01 17.488 17.488 0 0 0 .819-9.983c-2.06-8.822-6.939-11.723-7.465-12.83-.453-.69-.84-1.418-1.156-2.177l.388 24.583s-.804 7.512 1.225 8.417Z"/>
  <path fill="url(#b)" d="M198.967 48s-8.434-5.6-7.947-15.505a20.446 20.446 0 0 1 2.06-8.628 20.95 20.95 0 0 1 5.545-7.018 2.31 2.31 0 0 0 .636-.83c.145-.321.214-.67.201-1.019.525 1.101.439 16.444.495 18.239.213 6.98-.399 13.443-.99 14.761Z"/>
  <path fill="#000" d="M66.576 64.8c0-.824.18-1.56.54-2.208a3.867 3.867 0 0 1 1.476-1.524 4.033 4.033 0 0 1 2.088-.552c.936 0 1.736.224 2.4.672.672.44 1.16 1.064 1.464 1.872h-.984a2.874 2.874 0 0 0-1.104-1.332c-.488-.32-1.08-.48-1.776-.48a3.26 3.26 0 0 0-1.668.432 3.005 3.005 0 0 0-1.152 1.248c-.28.536-.42 1.16-.42 1.872 0 .712.14 1.336.42 1.872.28.536.664.948 1.152 1.236a3.26 3.26 0 0 0 1.668.432c.696 0 1.288-.156 1.776-.468.496-.32.864-.76 1.104-1.32h.984c-.304.8-.792 1.42-1.464 1.86-.672.44-1.472.66-2.4.66-.768 0-1.464-.18-2.088-.54a3.975 3.975 0 0 1-1.476-1.524c-.36-.648-.54-1.384-.54-2.208Zm12.93 4.284c-.776 0-1.48-.18-2.112-.54a4.035 4.035 0 0 1-1.5-1.524c-.36-.656-.54-1.396-.54-2.22 0-.824.18-1.56.54-2.208a3.925 3.925 0 0 1 1.5-1.524 4.12 4.12 0 0 1 2.112-.552c.784 0 1.492.184 2.124.552.632.36 1.128.868 1.488 1.524.36.648.54 1.384.54 2.208 0 .824-.18 1.564-.54 2.22a3.948 3.948 0 0 1-1.488 1.524c-.632.36-1.34.54-2.124.54Zm0-.732c.624 0 1.184-.144 1.68-.432.496-.288.888-.7 1.176-1.236.288-.544.432-1.172.432-1.884s-.144-1.336-.432-1.872a3.076 3.076 0 0 0-1.176-1.236 3.284 3.284 0 0 0-1.68-.432c-.624 0-1.184.144-1.68.432-.496.288-.888.7-1.176 1.236-.288.536-.432 1.16-.432 1.872 0 .712.144 1.34.432 1.884.288.536.68.948 1.176 1.236a3.284 3.284 0 0 0 1.68.432ZM91.039 69h-.84l-4.644-7.056V69h-.84v-8.388h.84l4.644 7.044v-7.044h.84V69Zm7.746 0h-.84l-4.644-7.056V69h-.84v-8.388h.84l4.644 7.044v-7.044h.84V69Zm2.263-7.704v3.132h3.18v.696h-3.18v3.18h3.54V69h-4.38v-8.4h4.38v.696h-3.54Zm4.331 3.504c0-.824.18-1.56.54-2.208a3.867 3.867 0 0 1 1.476-1.524 4.033 4.033 0 0 1 2.088-.552c.936 0 1.736.224 2.4.672.672.44 1.16 1.064 1.464 1.872h-.984a2.874 2.874 0 0 0-1.104-1.332c-.488-.32-1.08-.48-1.776-.48a3.26 3.26 0 0 0-1.668.432 3.005 3.005 0 0 0-1.152 1.248c-.28.536-.42 1.16-.42 1.872 0 .712.14 1.336.42 1.872.28.536.664.948 1.152 1.236a3.26 3.26 0 0 0 1.668.432c.696 0 1.288-.156 1.776-.468.496-.32.864-.76 1.104-1.32h.984c-.304.8-.792 1.42-1.464 1.86-.672.44-1.472.66-2.4.66-.768 0-1.464-.18-2.088-.54a3.975 3.975 0 0 1-1.476-1.524c-.36-.648-.54-1.384-.54-2.208Zm14.07-4.188v.696h-2.328V69h-.84v-7.692h-2.34v-.696h5.508Zm1.686 0V69h-.84v-8.388h.84ZM128.882 69h-.841l-4.644-7.056V69h-.84v-8.388h.84l4.644 7.044v-7.044h.841V69Zm8.022-5.94a2.822 2.822 0 0 0-1.104-1.296c-.488-.32-1.064-.48-1.728-.48-.624 0-1.184.144-1.68.432-.496.288-.888.7-1.176 1.236-.288.528-.432 1.144-.432 1.848 0 .704.144 1.324.432 1.86.288.536.68.948 1.176 1.236a3.284 3.284 0 0 0 1.68.432c.584 0 1.108-.124 1.572-.372a2.925 2.925 0 0 0 1.128-1.08c.288-.472.452-1.02.492-1.644h-3.528v-.684h4.416v.612a4.285 4.285 0 0 1-.6 2.004 3.944 3.944 0 0 1-1.452 1.404c-.6.344-1.276.516-2.028.516-.776 0-1.48-.18-2.112-.54a4.035 4.035 0 0 1-1.5-1.524c-.36-.656-.54-1.396-.54-2.22 0-.824.18-1.56.54-2.208a3.925 3.925 0 0 1 1.5-1.524 4.12 4.12 0 0 1 2.112-.552c.896 0 1.68.224 2.352.672.672.448 1.16 1.072 1.464 1.872h-.984Zm10.028-2.448v.696h-2.328V69h-.84v-7.692h-2.34v-.696h5.508Zm7.074 0V69h-.84v-3.924h-4.548V69h-.84v-8.388h.84v3.768h4.548v-3.768h.84ZM159.907 69l-2.076-3.504h-1.548V69h-.84v-8.388h2.52c.936 0 1.644.224 2.124.672.488.448.732 1.036.732 1.764 0 .608-.176 1.128-.528 1.56-.344.424-.856.7-1.536.828l2.16 3.564h-1.008Zm-3.624-4.188h1.692c.656 0 1.148-.16 1.476-.48.336-.32.504-.748.504-1.284 0-.552-.16-.976-.48-1.272-.32-.304-.824-.456-1.512-.456h-1.68v3.492Zm9.491 4.272c-.776 0-1.48-.18-2.112-.54a4.035 4.035 0 0 1-1.5-1.524c-.36-.656-.54-1.396-.54-2.22 0-.824.18-1.56.54-2.208a3.925 3.925 0 0 1 1.5-1.524 4.12 4.12 0 0 1 2.112-.552c.784 0 1.492.184 2.124.552.632.36 1.128.868 1.488 1.524.36.648.54 1.384.54 2.208 0 .824-.18 1.564-.54 2.22a3.948 3.948 0 0 1-1.488 1.524c-.632.36-1.34.54-2.124.54Zm0-.732c.624 0 1.184-.144 1.68-.432.496-.288.888-.7 1.176-1.236.288-.544.432-1.172.432-1.884s-.144-1.336-.432-1.872a3.076 3.076 0 0 0-1.176-1.236 3.284 3.284 0 0 0-1.68-.432c-.624 0-1.184.144-1.68.432-.496.288-.888.7-1.176 1.236-.288.536-.432 1.16-.432 1.872 0 .712.144 1.34.432 1.884.288.536.68.948 1.176 1.236a3.284 3.284 0 0 0 1.68.432Zm6.013-7.74v5.28c0 .832.196 1.448.588 1.848.4.4.944.6 1.632.6s1.224-.196 1.608-.588c.392-.4.588-1.02.588-1.86v-5.28h.84v5.268c0 1.064-.284 1.864-.852 2.4-.56.536-1.292.804-2.196.804-.904 0-1.64-.268-2.208-.804-.56-.536-.84-1.336-.84-2.4v-5.268h.84Zm13.249 2.448a2.822 2.822 0 0 0-1.104-1.296c-.488-.32-1.064-.48-1.728-.48-.624 0-1.184.144-1.68.432-.496.288-.888.7-1.176 1.236-.288.528-.432 1.144-.432 1.848 0 .704.144 1.324.432 1.86.288.536.68.948 1.176 1.236a3.284 3.284 0 0 0 1.68.432c.584 0 1.108-.124 1.572-.372a2.925 2.925 0 0 0 1.128-1.08c.288-.472.452-1.02.492-1.644h-3.528v-.684h4.416v.612a4.285 4.285 0 0 1-.6 2.004 3.944 3.944 0 0 1-1.452 1.404c-.6.344-1.276.516-2.028.516-.776 0-1.48-.18-2.112-.54a4.035 4.035 0 0 1-1.5-1.524c-.36-.656-.54-1.396-.54-2.22 0-.824.18-1.56.54-2.208a3.925 3.925 0 0 1 1.5-1.524 4.12 4.12 0 0 1 2.112-.552c.896 0 1.68.224 2.352.672.672.448 1.16 1.072 1.464 1.872h-.984Zm8.535-2.448V69h-.84v-3.924h-4.548V69h-.84v-8.388h.84v3.768h4.548v-3.768h.84ZM72.125 79.45c1.85 0 3.467.367 4.85 1.1 1.383.733 2.45 1.767 3.2 3.1.767 1.317 1.15 2.842 1.15 4.575 0 1.717-.383 3.242-1.15 4.575-.75 1.333-1.825 2.367-3.225 3.1-1.383.733-2.992 1.1-4.825 1.1H65.55V79.45h6.575ZM71.85 93.3c1.617 0 2.875-.442 3.775-1.325.9-.883 1.35-2.133 1.35-3.75s-.45-2.875-1.35-3.775c-.9-.9-2.158-1.35-3.775-1.35h-2.025v10.2h2.025Zm21.79.6h-6.55L86.04 97h-4.476l6.35-17.55h4.95L99.214 97H94.69l-1.05-3.1Zm-1.1-3.3-2.176-6.425-2.15 6.425h4.325Zm20.232-11.15v3.425h-4.65V97h-4.275V82.875h-4.65V79.45h13.575Zm12.07 14.45h-6.55l-1.05 3.1h-4.475l6.35-17.55h4.95l6.35 17.55h-4.525l-1.05-3.1Zm-1.1-3.3-2.175-6.425-2.15 6.425h4.325Zm22.531-2.6c1.016.217 1.833.725 2.45 1.525.616.783.925 1.683.925 2.7 0 1.467-.517 2.633-1.55 3.5-1.017.85-2.442 1.275-4.275 1.275h-8.175V79.45h7.9c1.783 0 3.175.408 4.175 1.225 1.016.817 1.525 1.925 1.525 3.325 0 1.033-.275 1.892-.825 2.575-.534.683-1.25 1.158-2.15 1.425Zm-6.35-1.45h2.8c.7 0 1.233-.15 1.6-.45.383-.317.575-.775.575-1.375s-.192-1.058-.575-1.375c-.367-.317-.9-.475-1.6-.475h-2.8v3.675Zm3.15 7c.716 0 1.266-.158 1.65-.475.4-.333.6-.808.6-1.425s-.209-1.1-.625-1.45c-.4-.35-.959-.525-1.675-.525h-3.1v3.875h3.15Zm18.979.35h-6.55l-1.05 3.1h-4.475l6.35-17.55h4.95l6.35 17.55h-4.525l-1.05-3.1Zm-1.1-3.3-2.175-6.425-2.15 6.425h4.325Zm13.958 6.575c-1.284 0-2.434-.208-3.45-.625-1.017-.417-1.834-1.033-2.45-1.85-.6-.817-.917-1.8-.95-2.95h4.55c.066.65.291 1.15.675 1.5.383.333.883.5 1.5.5.633 0 1.133-.142 1.5-.425.366-.3.55-.708.55-1.225 0-.433-.15-.792-.45-1.075a3.348 3.348 0 0 0-1.075-.7c-.417-.183-1.017-.392-1.8-.625-1.134-.35-2.059-.7-2.775-1.05a5.12 5.12 0 0 1-1.85-1.55c-.517-.683-.775-1.575-.775-2.675 0-1.633.591-2.908 1.775-3.825 1.183-.933 2.725-1.4 4.625-1.4 1.933 0 3.491.467 4.675 1.4 1.183.917 1.816 2.2 1.9 3.85h-4.625c-.034-.567-.242-1.008-.625-1.325-.384-.333-.875-.5-1.475-.5-.517 0-.934.142-1.25.425-.317.267-.475.658-.475 1.175 0 .567.266 1.008.8 1.325.533.317 1.366.658 2.5 1.025 1.133.383 2.05.75 2.75 1.1a5.23 5.23 0 0 1 1.85 1.525c.516.667.775 1.525.775 2.575 0 1-.259 1.908-.775 2.725-.5.817-1.234 1.467-2.2 1.95-.967.483-2.109.725-3.425.725Zm12.306-14.3v3.55h5.725v3.3h-5.725v3.85h6.475V97h-10.75V79.45h10.75v3.425h-6.475ZM27.44 77.064a28.834 28.834 0 0 0 10.137 1.626 28.833 28.833 0 0 0 10.136-1.627c2.54-.99 3.44-2.092 3.44-2.726v-4.844a14.115 14.115 0 0 1-2.84 1.466 30.38 30.38 0 0 1-10.736 1.775 30.47 30.47 0 0 1-10.737-1.772c-1-.38-1.953-.873-2.84-1.47v4.839c0 .645.904 1.741 3.44 2.733Zm0 9.137c1.15.439 2.336.776 3.544 1.01 2.172.42 4.38.627 6.593.617 2.212.01 4.42-.196 6.593-.616a21.285 21.285 0 0 0 3.543-1.01c2.54-.99 3.44-2.091 3.44-2.725v-4.62c-.734.442-1.505.818-2.305 1.125a32.01 32.01 0 0 1-11.271 1.83 32.011 32.011 0 0 1-11.271-1.837c-.8-.307-1.572-.683-2.306-1.124v4.623c0 .635.904 1.732 3.44 2.727Zm10.137 10.955c7.495 0 13.576-2.377 13.576-5.306v-3.866c-.667.402-1.367.75-2.091 1.038l-.214.086a32.006 32.006 0 0 1-11.271 1.84 31.918 31.918 0 0 1-11.271-1.84c-.074-.028-.145-.059-.214-.086A14.297 14.297 0 0 1 24 87.984v3.866c0 2.93 6.082 5.306 13.577 5.306Z"/>
  <path fill="#000" d="M37.577 69.613c7.498 0 13.576-2.376 13.576-5.307 0-2.93-6.078-5.306-13.576-5.306S24 61.376 24 64.306c0 2.931 6.078 5.307 13.577 5.307Z"/>
  <defs>
    <linearGradient id="a" x1="197.405" x2="202.452" y1="14.824" y2="47.29" gradientUnits="userSpaceOnUse">
      <stop/>
      <stop offset="1"/>
    </linearGradient>
    <linearGradient id="b" x1="190.295" x2="204.332" y1="33.475" y2="28.652" gradientUnits="userSpaceOnUse">
      <stop/>
      <stop offset=".352"/>
      <stop offset=".956"/>
      <stop offset="1"/>
    </linearGradient>
  </defs>
</svg>
