<svg xmlns="http://www.w3.org/2000/svg" width="83" height="68" fill="none" viewBox="0 0 83 68">
  <path fill="url(#a)" d="M9.156 8.887C9 4.263 12.504 0 17.239 0h48.529c4.735 0 8.238 4.263 8.082 8.887-.15 4.441.044 10.193 1.453 14.885 1.414 4.705 3.795 7.68 7.697 8.061v4.334c-3.902.381-6.283 3.356-7.697 8.061-1.409 4.692-1.603 10.444-1.453 14.885.156 4.624-3.347 8.887-8.082 8.887h-48.53C12.505 68 9 63.737 9.157 59.113c.15-4.441-.045-10.193-1.453-14.885C6.29 39.523 3.902 36.548 0 36.167v-4.334c3.902-.381 6.29-3.356 7.703-8.061C9.111 19.08 9.307 13.328 9.156 8.887Z"/>
  <g clip-path="url(#b)">
    <path fill="url(#c)" d="M8.825 8.364C8.675 4.013 12.052 0 16.615 0h46.776c4.564 0 7.94 4.013 7.79 8.364-.145 4.18.042 9.594 1.4 14.01 1.363 4.428 3.658 7.228 7.419 7.587v4.078c-3.76.36-6.056 3.16-7.419 7.588-1.358 4.415-1.545 9.829-1.4 14.01.15 4.35-3.226 8.363-7.79 8.363H16.616c-4.564 0-7.941-4.013-7.791-8.364.145-4.18-.044-9.594-1.4-14.01C6.063 37.199 3.761 34.399 0 34.04v-4.078c3.76-.36 6.063-3.16 7.425-7.588 1.356-4.415 1.545-9.829 1.4-14.01Z"/>
    <path fill="#fff" fill-rule="evenodd" d="M53.578 39.388c0 5.992-4.453 9.625-11.844 9.625H27.797V14.974h13.866c6.162 0 10.206 3.35 10.206 8.491 0 3.61-2.719 6.843-6.186 7.407v.19c4.719.52 7.895 3.798 7.895 8.326ZM33.19 44.697V33.492h7.125c5.103 0 7.752 1.887 7.752 5.567s-2.575 5.638-7.438 5.638H33.19Zm0-25.406h7.173c3.9 0 6.115 1.746 6.115 4.907 0 3.372-2.575 5.26-7.246 5.26H33.19V19.29Z" clip-rule="evenodd"/>
  </g>
  <defs>
    <linearGradient id="a" x1="12.32" x2="86.327" y1="1.667" y2="58.835" gradientUnits="userSpaceOnUse">
      <stop stop-color="#fff"/>
      <stop offset=".836" stop-color="#fff"/>
      <stop offset="1" stop-color="#fff"/>
    </linearGradient>
    <linearGradient id="c" x1="11.875" x2="81.93" y1="1.569" y2="56.988" gradientUnits="userSpaceOnUse">
      <stop stop-color="#9013FE"/>
      <stop offset="1" stop-color="#6610F2"/>
    </linearGradient>
    <clipPath id="b">
      <path fill="#fff" d="M0 0h80v64H0z"/>
    </clipPath>
  </defs>
</svg>
