<svg xmlns="http://www.w3.org/2000/svg" width="282" height="105" fill="none" viewBox="0 0 282 105">
  <path fill="#fff" d="M3.356 39.89c-.749-13.787 9.82-25.57 23.607-26.32L251.755 1.356c13.787-.749 25.57 9.82 26.319 23.607l2.165 39.833c.749 13.786-9.82 25.57-23.607 26.32L31.84 103.328c-13.787.749-25.57-9.82-26.32-23.607L3.357 39.89Z"/>
  <path fill="#F2D20B" d="M6 32.62c0-13.806 11.193-25 25-25h219c13.807 0 25 11.194 25 25v37c0 13.808-11.193 25-25 25H31c-13.807 0-25-11.192-25-25v-37Z"/>
  <path fill="#fff" d="M61.876 45.491a10.75 10.75 0 0 0 4.392-5.25c.85-2.178.963-4.572.32-6.82a10.736 10.736 0 0 0-3.883-5.632 10.853 10.853 0 0 0-6.516-2.168H37.811c-2.352-.001-4.64.76-6.516 2.168a10.736 10.736 0 0 0-3.883 5.633 10.672 10.672 0 0 0 .32 6.82 10.755 10.755 0 0 0 4.392 5.25 10.762 10.762 0 0 0-3.756 3.902 10.677 10.677 0 0 0 0 10.454 10.763 10.763 0 0 0 3.757 3.903 10.768 10.768 0 0 0-3.814 4.013 10.683 10.683 0 0 0 .247 10.665 10.777 10.777 0 0 0 3.995 3.834 10.864 10.864 0 0 0 10.737-.123 10.773 10.773 0 0 0 3.905-3.926 10.685 10.685 0 0 0 1.427-5.334V62.282a10.815 10.815 0 0 0 3.806 2.404 10.871 10.871 0 0 0 8.806-.566 10.788 10.788 0 0 0 3.463-2.872 10.707 10.707 0 0 0 1.982-4.026 10.667 10.667 0 0 0-1.546-8.63 10.775 10.775 0 0 0-3.257-3.1Zm1.88-9.13a7.502 7.502 0 0 1-2.216 5.313 7.601 7.601 0 0 1-5.346 2.206h-7.572V28.843h7.567a7.601 7.601 0 0 1 5.349 2.205 7.502 7.502 0 0 1 2.219 5.314Zm-33.513 0a7.503 7.503 0 0 1 2.22-5.313 7.601 7.601 0 0 1 5.348-2.205h7.567V43.88h-7.572a7.6 7.6 0 0 1-5.346-2.206 7.503 7.503 0 0 1-2.217-5.312Zm0 18.26a7.503 7.503 0 0 1 2.217-5.312 7.601 7.601 0 0 1 5.346-2.207h7.572V62.14h-7.567a7.6 7.6 0 0 1-5.349-2.204 7.503 7.503 0 0 1-2.219-5.314Zm7.568 25.777a7.61 7.61 0 0 1-2.898-.57 7.569 7.569 0 0 1-2.457-1.63 7.515 7.515 0 0 1-1.642-2.44 7.476 7.476 0 0 1 1.642-8.197 7.57 7.57 0 0 1 2.457-1.629 7.61 7.61 0 0 1 2.898-.57h7.567v7.518a7.502 7.502 0 0 1-2.219 5.314 7.6 7.6 0 0 1-5.348 2.204ZM56.189 62.14a7.592 7.592 0 0 1-5.348-2.2 7.494 7.494 0 0 1-2.217-5.313 7.494 7.494 0 0 1 2.21-5.315 7.592 7.592 0 0 1 5.345-2.209h.015a7.593 7.593 0 0 1 5.346 2.207 7.494 7.494 0 0 1 2.212 5.314 7.494 7.494 0 0 1-2.216 5.313 7.592 7.592 0 0 1-5.347 2.203Z"/>
  <path fill="#000" d="M60.956 42.024a12.29 12.29 0 0 0 3.713-6.275 12.25 12.25 0 0 0-.501-7.266 12.31 12.31 0 0 0-4.542-5.71 12.395 12.395 0 0 0-6.988-2.152H34.362c-2.494-.001-4.93.75-6.988 2.152a12.31 12.31 0 0 0-4.541 5.71 12.25 12.25 0 0 0-.502 7.266 12.29 12.29 0 0 0 3.713 6.275 12.291 12.291 0 0 0-2.988 4.123 12.242 12.242 0 0 0 0 9.948 12.292 12.292 0 0 0 2.988 4.122 12.3 12.3 0 0 0-3.35 5.048 12.253 12.253 0 0 0 1.892 11.576 12.353 12.353 0 0 0 4.784 3.73 12.41 12.41 0 0 0 11.742-.945 12.326 12.326 0 0 0 4.12-4.448 12.26 12.26 0 0 0 1.493-5.864v-7.388a12.407 12.407 0 0 0 8.691 1.189 12.36 12.36 0 0 0 7.294-4.854 12.261 12.261 0 0 0-1.754-16.237Zm-2.406-9.096a5.88 5.88 0 0 1-1.732 4.158 5.932 5.932 0 0 1-4.175 1.728h-5.918V27.042h5.913a5.932 5.932 0 0 1 4.178 1.726 5.88 5.88 0 0 1 1.734 4.16Zm-30.1 0a5.88 5.88 0 0 1 1.734-4.16 5.932 5.932 0 0 1 4.178-1.726h5.913v11.772h-5.918a5.933 5.933 0 0 1-4.175-1.728 5.88 5.88 0 0 1-1.732-4.158Zm0 18.193a5.88 5.88 0 0 1 1.732-4.159 5.932 5.932 0 0 1 4.175-1.727h5.918v11.772h-5.913a5.933 5.933 0 0 1-4.178-1.726 5.88 5.88 0 0 1-1.734-4.16Zm11.825 18.193a5.867 5.867 0 0 1-.996 3.27 5.906 5.906 0 0 1-2.654 2.168 5.937 5.937 0 0 1-6.443-1.276 5.862 5.862 0 0 1-1.282-6.415 5.891 5.891 0 0 1 2.178-2.641 5.931 5.931 0 0 1 3.284-.992h5.913v5.886Zm12.363-12.307a5.926 5.926 0 0 1-4.177-1.723 5.873 5.873 0 0 1-1.733-4.158 5.872 5.872 0 0 1 1.725-4.16 5.926 5.926 0 0 1 4.174-1.731h.016a5.926 5.926 0 0 1 4.175 1.728 5.873 5.873 0 0 1 1.728 4.16c0 1.56-.623 3.056-1.731 4.16a5.926 5.926 0 0 1-4.177 1.724ZM94.02 26.47v4.68h-8.46v3.72h6.24v4.47h-6.24v8.28h-5.88V26.47h14.34Zm7.156 0v21.15h-5.88V26.47h5.88Zm15.649 6.96c-.34-.56-.81-.99-1.41-1.29-.58-.3-1.27-.45-2.07-.45-1.48 0-2.65.48-3.51 1.44-.84.96-1.26 2.25-1.26 3.87 0 1.82.45 3.21 1.35 4.17.92.94 2.25 1.41 3.99 1.41 2.06 0 3.53-.93 4.41-2.79h-5.91v-4.23h10.98v5.7c-.46 1.12-1.14 2.17-2.04 3.15-.88.98-2 1.79-3.36 2.43-1.36.62-2.91.93-4.65.93-2.12 0-4-.45-5.64-1.35a9.75 9.75 0 0 1-3.78-3.81c-.88-1.64-1.32-3.51-1.32-5.61 0-2.08.44-3.93 1.32-5.55.9-1.64 2.16-2.91 3.78-3.81 1.62-.92 3.49-1.38 5.61-1.38 2.66 0 4.86.64 6.6 1.92 1.74 1.28 2.82 3.03 3.24 5.25h-6.33Zm32.695-6.96v21.15h-5.88V35.95l-3.99 11.67h-4.92l-4.02-11.76v11.76h-5.88V26.47h7.11l5.31 13.74 5.19-13.74h7.08Zm15.527 17.7h-7.5l-1.14 3.45h-6.18l7.71-21.15h6.78l7.68 21.15h-6.21l-1.14-3.45Zm-1.47-4.5-2.28-6.84-2.25 6.84h4.53Zm15.481-4.835v6.16c0 .97.229 1.69.686 2.156.467.466 1.101.7 1.904.7.803 0 1.428-.229 1.876-.686.457-.467.686-1.19.686-2.17v-6.16h.98v6.146c0 1.241-.331 2.174-.994 2.8-.653.625-1.507.938-2.562.938s-1.913-.313-2.576-.938c-.653-.626-.98-1.559-.98-2.8v-6.146h.98Zm8.738 0v9.786h-.98v-9.786h.98Zm6.013-3.374-3.864 15.484h-.966l3.836-15.484h.994Zm2.204 3.374v6.16c0 .97.228 1.69.686 2.156.466.466 1.101.7 1.904.7.802 0 1.428-.229 1.876-.686.457-.467.686-1.19.686-2.17v-6.16h.98v6.146c0 1.241-.332 2.174-.994 2.8-.654.625-1.508.938-2.562.938-1.055 0-1.914-.313-2.576-.938-.654-.626-.98-1.559-.98-2.8v-6.146h.98Zm11.286 4.9 2.968 4.886h-1.092l-2.492-4.088-2.366 4.088h-1.092l2.954-4.928-2.954-4.858h1.092l2.478 4.074 2.394-4.074h1.092l-2.982 4.9Zm10.281-4.9c1.083 0 2.011.196 2.786.588a4.105 4.105 0 0 1 1.778 1.694c.411.737.616 1.614.616 2.632 0 1.008-.205 1.88-.616 2.618a4.128 4.128 0 0 1-1.778 1.68c-.775.382-1.703.574-2.786.574h-2.898v-9.786h2.898Zm0 8.974c1.363 0 2.399-.355 3.108-1.064.719-.719 1.078-1.718 1.078-2.996 0-1.288-.359-2.292-1.078-3.01-.709-.728-1.745-1.092-3.108-1.092h-1.918v8.162h1.918Zm7.407-8.176v3.654h3.71v.812h-3.71v3.71h4.13v.812h-5.11v-9.8h5.11v.812h-4.13Zm8.469 9.086c-.644 0-1.214-.112-1.708-.336a2.786 2.786 0 0 1-1.148-.938c-.28-.402-.43-.85-.448-1.344h1.036c.046.476.256.896.63 1.26.373.354.919.532 1.638.532.662 0 1.185-.168 1.568-.504.392-.346.588-.78.588-1.302 0-.42-.108-.756-.322-1.008a1.891 1.891 0 0 0-.798-.574c-.318-.13-.756-.27-1.316-.42-.654-.178-1.172-.35-1.554-.518a2.467 2.467 0 0 1-.98-.784c-.271-.355-.406-.836-.406-1.442 0-.504.13-.952.392-1.344a2.6 2.6 0 0 1 1.106-.938c.476-.224 1.022-.336 1.638-.336.905 0 1.633.224 2.184.672.56.438.882 1.008.966 1.708h-1.064c-.066-.402-.285-.756-.658-1.064-.374-.318-.878-.476-1.512-.476-.588 0-1.078.158-1.47.476-.392.308-.588.732-.588 1.274 0 .41.107.742.322.994.214.252.48.443.798.574.326.13.765.27 1.316.42.634.177 1.148.354 1.54.532.392.168.723.43.994.784.27.354.406.83.406 1.428 0 .457-.122.891-.364 1.302-.243.41-.602.742-1.078.994-.476.252-1.046.378-1.708.378Zm5.463-9.884v9.786h-.98v-9.786h.98Zm9.36 2.856a3.296 3.296 0 0 0-1.288-1.512c-.57-.374-1.242-.56-2.016-.56-.728 0-1.382.168-1.96.504a3.586 3.586 0 0 0-1.372 1.442c-.336.616-.504 1.334-.504 2.156 0 .821.168 1.544.504 2.17a3.587 3.587 0 0 0 1.372 1.442c.578.336 1.232.504 1.96.504.681 0 1.292-.145 1.834-.434a3.42 3.42 0 0 0 1.316-1.26c.336-.55.527-1.19.574-1.918h-4.116v-.798h5.152v.714a5.003 5.003 0 0 1-.7 2.338 4.604 4.604 0 0 1-1.694 1.638c-.7.401-1.489.602-2.366.602-.906 0-1.727-.21-2.464-.63a4.701 4.701 0 0 1-1.75-1.778c-.42-.766-.63-1.629-.63-2.59 0-.962.21-1.82.63-2.576a4.572 4.572 0 0 1 1.75-1.778c.737-.43 1.558-.644 2.464-.644 1.045 0 1.96.261 2.744.784.784.522 1.353 1.25 1.708 2.184h-1.148Zm10.069 6.93h-.98l-5.418-8.232v8.232h-.98v-9.786h.98l5.418 8.218v-8.218h.98v9.786ZM80.444 64.233c.928 0 1.724.168 2.388.504.664.336 1.172.82 1.524 1.452.352.632.528 1.384.528 2.256 0 .864-.176 1.612-.528 2.244a3.538 3.538 0 0 1-1.524 1.44c-.664.328-1.46.492-2.388.492H77.96v-8.388h2.484Zm0 7.692c1.168 0 2.056-.304 2.664-.912.616-.616.924-1.472.924-2.568 0-1.104-.308-1.964-.924-2.58-.608-.624-1.496-.936-2.664-.936H78.8v6.996h1.644Zm6.349-7.008v3.132h3.18v.696h-3.18v3.18h3.54v.696h-4.38v-8.4h4.38v.696h-3.54Zm7.259 7.788c-.552 0-1.04-.096-1.464-.288a2.391 2.391 0 0 1-.984-.804 2.111 2.111 0 0 1-.384-1.152h.888c.04.408.22.768.54 1.08.32.304.788.456 1.404.456.568 0 1.016-.144 1.344-.432.336-.296.504-.668.504-1.116 0-.36-.092-.648-.276-.864a1.618 1.618 0 0 0-.684-.492 9.585 9.585 0 0 0-1.128-.36 9.862 9.862 0 0 1-1.332-.444 2.12 2.12 0 0 1-.84-.672c-.232-.304-.348-.716-.348-1.236 0-.432.112-.816.336-1.152.224-.344.54-.612.948-.804.408-.192.876-.288 1.404-.288.776 0 1.4.192 1.872.576.48.376.756.864.828 1.464h-.912c-.056-.344-.244-.648-.564-.912-.32-.272-.752-.408-1.296-.408-.504 0-.924.136-1.26.408-.336.264-.504.628-.504 1.092 0 .352.092.636.276.852.184.216.412.38.684.492.28.112.656.232 1.128.36.544.152.984.304 1.32.456a2.1 2.1 0 0 1 .852.672c.232.304.348.712.348 1.224 0 .392-.104.764-.312 1.116a2.277 2.277 0 0 1-.924.852c-.408.216-.896.324-1.464.324Zm4.683-8.472v8.388h-.84v-8.388h.84Zm8.022 2.448a2.822 2.822 0 0 0-1.104-1.296c-.488-.32-1.064-.48-1.728-.48-.624 0-1.184.144-1.68.432-.496.288-.888.7-1.176 1.236-.288.528-.432 1.144-.432 1.848 0 .704.144 1.324.432 1.86.288.536.68.948 1.176 1.236a3.284 3.284 0 0 0 1.68.432c.584 0 1.108-.124 1.572-.372a2.925 2.925 0 0 0 1.128-1.08c.288-.472.452-1.02.492-1.644h-3.528v-.684h4.416v.612a4.285 4.285 0 0 1-.6 2.004 3.944 3.944 0 0 1-1.452 1.404c-.6.344-1.276.516-2.028.516-.776 0-1.48-.18-2.112-.54a4.035 4.035 0 0 1-1.5-1.524c-.36-.656-.54-1.396-.54-2.22 0-.824.18-1.56.54-2.208a3.925 3.925 0 0 1 1.5-1.524 4.12 4.12 0 0 1 2.112-.552c.896 0 1.68.224 2.352.672.672.448 1.16 1.072 1.464 1.872h-.984Zm8.631 5.94h-.84l-4.644-7.056v7.056h-.84v-8.388h.84l4.644 7.044v-7.044h.84v8.388Zm6.779.084c-.552 0-1.04-.096-1.464-.288a2.391 2.391 0 0 1-.984-.804 2.111 2.111 0 0 1-.384-1.152h.888c.04.408.22.768.54 1.08.32.304.788.456 1.404.456.568 0 1.016-.144 1.344-.432.336-.296.504-.668.504-1.116 0-.36-.092-.648-.276-.864a1.618 1.618 0 0 0-.684-.492 9.585 9.585 0 0 0-1.128-.36 9.862 9.862 0 0 1-1.332-.444 2.12 2.12 0 0 1-.84-.672c-.232-.304-.348-.716-.348-1.236 0-.432.112-.816.336-1.152.224-.344.54-.612.948-.804.408-.192.876-.288 1.404-.288.776 0 1.4.192 1.872.576.48.376.756.864.828 1.464h-.912c-.056-.344-.244-.648-.564-.912-.32-.272-.752-.408-1.296-.408-.504 0-.924.136-1.26.408-.336.264-.504.628-.504 1.092 0 .352.092.636.276.852.184.216.412.38.684.492.28.112.656.232 1.128.36.544.152.984.304 1.32.456a2.1 2.1 0 0 1 .852.672c.232.304.348.712.348 1.224 0 .392-.104.764-.312 1.116a2.277 2.277 0 0 1-.924.852c-.408.216-.896.324-1.464.324Zm8.752-8.472v.696h-2.328v7.692h-.84v-7.692h-2.34v-.696h5.508Zm5.31 8.388-2.076-3.504h-1.548v3.504h-.84v-8.388h2.52c.936 0 1.644.224 2.124.672.488.448.732 1.036.732 1.764 0 .608-.176 1.128-.528 1.56-.344.424-.856.7-1.536.828l2.16 3.564h-1.008Zm-3.624-4.188h1.692c.656 0 1.148-.16 1.476-.48.336-.32.504-.748.504-1.284 0-.552-.16-.976-.48-1.272-.32-.304-.824-.456-1.512-.456h-1.68v3.492Zm10.583 2.196h-3.816l-.732 1.992h-.888l3.06-8.28h.948l3.048 8.28h-.888l-.732-1.992Zm-.252-.696-1.656-4.536-1.656 4.536h3.312Zm7.648-5.7v.696h-2.328v7.692h-.84v-7.692h-2.34v-.696h5.508Zm1.686.684v3.132h3.18v.696h-3.18v3.18h3.54v.696h-4.38v-8.4h4.38v.696h-3.54Zm11.316 1.764a2.822 2.822 0 0 0-1.104-1.296c-.488-.32-1.064-.48-1.728-.48-.624 0-1.184.144-1.68.432-.496.288-.888.7-1.176 1.236-.288.528-.432 1.144-.432 1.848 0 .704.144 1.324.432 1.86.288.536.68.948 1.176 1.236a3.284 3.284 0 0 0 1.68.432c.584 0 1.108-.124 1.572-.372a2.925 2.925 0 0 0 1.128-1.08c.288-.472.452-1.02.492-1.644h-3.528v-.684h4.416v.612a4.285 4.285 0 0 1-.6 2.004 3.944 3.944 0 0 1-1.452 1.404c-.6.344-1.276.516-2.028.516-.776 0-1.48-.18-2.112-.54a4.035 4.035 0 0 1-1.5-1.524c-.36-.656-.54-1.396-.54-2.22 0-.824.18-1.56.54-2.208a3.925 3.925 0 0 1 1.5-1.524 4.12 4.12 0 0 1 2.112-.552c.896 0 1.68.224 2.352.672.672.448 1.16 1.072 1.464 1.872h-.984Zm7.85-2.448-2.688 5.124v3.264h-.84v-3.264l-2.712-5.124h.948l2.184 4.356 2.172-4.356h.936Z"/>
  <rect width="94" height="21.933" x="176" y="60.779" fill="#fff" rx="10.967" transform="rotate(-3.146 176 60.779)"/>
  <rect width="94" height="21.933" x="174" y="57.687" fill="#000" rx="10.967"/>
  <path fill="#F2D20B" d="m186.41 72.776-.78-.756c-.776.592-1.704.888-2.784.888-.648 0-1.212-.104-1.692-.312-.48-.216-.852-.516-1.116-.9-.256-.392-.384-.848-.384-1.368 0-.528.14-1.004.42-1.428.288-.432.716-.784 1.284-1.056a2.713 2.713 0 0 1-.444-.732c-.088-.24-.132-.5-.132-.78 0-.4.104-.764.312-1.092.208-.328.508-.584.9-.768.4-.192.872-.288 1.416-.288.552 0 1.02.1 1.404.3.384.2.672.468.864.804.192.336.28.704.264 1.104h-1.932c.008-.216-.048-.38-.168-.492a.594.594 0 0 0-.456-.18.703.703 0 0 0-.48.168.548.548 0 0 0-.192.432c0 .168.052.344.156.528.112.184.284.396.516.636l2.052 2.004.06-.144c.032-.056.064-.12.096-.192l.444-.756h2.052l-.576 1.044c-.216.472-.464.92-.744 1.344l2.028 1.992h-2.388Zm-3.468-1.524c.536 0 1.012-.152 1.428-.456l-1.872-1.812c-.576.296-.864.696-.864 1.2 0 .304.116.56.348.768.24.2.56.3.96.3Zm10.197-6.9v5.04c0 .504.124.892.372 1.164.248.272.612.408 1.092.408.48 0 .848-.136 1.104-.408.256-.272.384-.66.384-1.164v-5.04h2.052v5.028c0 .752-.16 1.388-.48 1.908-.32.52-.752.912-1.296 1.176a4.019 4.019 0 0 1-1.8.396c-.664 0-1.26-.128-1.788-.384a2.964 2.964 0 0 1-1.236-1.176c-.304-.528-.456-1.168-.456-1.92v-5.028h2.052Zm9.013 8.508c-.616 0-1.168-.1-1.656-.3-.488-.2-.88-.496-1.176-.888-.288-.392-.44-.864-.456-1.416h2.184c.032.312.14.552.324.72.184.16.424.24.72.24.304 0 .544-.068.72-.204a.72.72 0 0 0 .264-.588.68.68 0 0 0-.216-.516 1.602 1.602 0 0 0-.516-.336 7.798 7.798 0 0 0-.864-.3 9.473 9.473 0 0 1-1.332-.504 2.461 2.461 0 0 1-.888-.744c-.248-.328-.372-.756-.372-1.284 0-.784.284-1.396.852-1.836.568-.448 1.308-.672 2.22-.672.928 0 1.676.224 2.244.672.568.44.872 1.056.912 1.848h-2.22c-.016-.272-.116-.484-.3-.636-.184-.16-.42-.24-.708-.24-.248 0-.448.068-.6.204-.152.128-.228.316-.228.564 0 .272.128.484.384.636.256.152.656.316 1.2.492.544.184.984.36 1.32.528.344.168.64.412.888.732s.372.732.372 1.236c0 .48-.124.916-.372 1.308-.24.392-.592.704-1.056.936-.464.232-1.012.348-1.644.348Zm5.907-6.864V67.7h2.748v1.584h-2.748v1.848h3.108v1.644h-5.16v-8.424h5.16v1.644h-3.108Zm8.256 6.78-1.752-3.18h-.492v3.18h-2.052v-8.424h3.444c.664 0 1.228.116 1.692.348.472.232.824.552 1.056.96.232.4.348.848.348 1.344 0 .56-.16 1.06-.48 1.5-.312.44-.776.752-1.392.936l1.944 3.336h-2.316Zm-2.244-4.632h1.272c.376 0 .656-.092.84-.276.192-.184.288-.444.288-.78 0-.32-.096-.572-.288-.756-.184-.184-.464-.276-.84-.276h-1.272v2.088Zm14.895 4.632h-2.052l-3.432-5.196v5.196h-2.052v-8.424h2.052l3.432 5.22v-5.22h2.052v8.424Zm3.06-6.78V67.7h2.748v1.584h-2.748v1.848h3.108v1.644h-5.16v-8.424h5.16v1.644h-3.108Zm6.012 0V67.7h2.748v1.584h-2.748v1.848h3.108v1.644h-5.16v-8.424h5.16v1.644h-3.108Zm7.116-1.644c.888 0 1.664.176 2.328.528a3.722 3.722 0 0 1 1.536 1.488c.368.632.552 1.364.552 2.196 0 .824-.184 1.556-.552 2.196a3.705 3.705 0 0 1-1.548 1.488c-.664.352-1.436.528-2.316.528h-3.156v-8.424h3.156ZM245.022 71c.776 0 1.38-.212 1.812-.636.432-.424.648-1.024.648-1.8s-.216-1.38-.648-1.812c-.432-.432-1.036-.648-1.812-.648h-.972V71h.972Zm8.263 1.86c-.616 0-1.168-.1-1.656-.3-.488-.2-.88-.496-1.176-.888-.288-.392-.44-.864-.456-1.416h2.184c.032.312.14.552.324.72.184.16.424.24.72.24.304 0 .544-.068.72-.204a.72.72 0 0 0 .264-.588.68.68 0 0 0-.216-.516 1.602 1.602 0 0 0-.516-.336 7.798 7.798 0 0 0-.864-.3 9.473 9.473 0 0 1-1.332-.504 2.461 2.461 0 0 1-.888-.744c-.248-.328-.372-.756-.372-1.284 0-.784.284-1.396.852-1.836.568-.448 1.308-.672 2.22-.672.928 0 1.676.224 2.244.672.568.44.872 1.056.912 1.848h-2.22c-.016-.272-.116-.484-.3-.636-.184-.16-.42-.24-.708-.24-.248 0-.448.068-.6.204-.152.128-.228.316-.228.564 0 .272.128.484.384.636.256.152.656.316 1.2.492.544.184.984.36 1.32.528.344.168.64.412.888.732s.372.732.372 1.236c0 .48-.124.916-.372 1.308-.24.392-.592.704-1.056.936-.464.232-1.012.348-1.644.348Z"/>
</svg>
