<svg xmlns="http://www.w3.org/2000/svg" width="81" height="77" fill="none" viewBox="0 0 81 77">
  <path fill="#fff" fill-rule="evenodd" d="M42.498.013C21.24.013 4 17.685 4 39.483c0 17.44 11.03 32.23 26.327 37.45 1.925.366 2.633-.857 2.633-1.9 0-.941-.038-4.05-.054-7.346-10.711 2.388-12.97-4.659-12.97-4.659-1.75-4.563-4.274-5.776-4.274-5.776-3.493-2.452.266-2.398.266-2.398 3.865.277 5.9 4.064 5.9 4.064 3.436 6.035 9.01 4.288 11.204 3.281.347-2.55 1.342-4.293 2.445-5.28-8.552-.994-17.541-4.38-17.541-19.505 0-4.308 1.506-7.831 3.966-10.593-.4-.997-1.72-5.009.37-10.445 0 0 3.234-1.062 10.592 4.046 3.069-.872 6.361-1.312 9.631-1.327 3.273.015 6.57.453 9.644 1.327 7.348-5.104 10.578-4.046 10.578-4.046 2.094 5.438.78 9.453.38 10.445 2.468 2.762 3.962 6.285 3.962 10.593 0 15.16-9.01 18.493-17.58 19.47 1.382 1.224 2.615 3.627 2.615 7.307 0 5.278-.044 9.532-.044 10.83 0 1.05.693 2.278 2.646 1.894C69.984 71.69 81 56.899 81 39.469 81 17.675 63.763 0 42.5 0l-.002.013Z" clip-rule="evenodd"/>
  <path fill="#000" fill-rule="evenodd" d="M38.498.013C17.24.013 0 16.996 0 37.944c0 16.76 11.03 30.974 26.327 35.992 1.925.352 2.633-.824 2.633-1.827 0-.904-.038-3.892-.054-7.059-10.711 2.295-12.97-4.477-12.97-4.477-1.75-4.386-4.274-5.552-4.274-5.552-3.493-2.356.266-2.304.266-2.304 3.865.266 5.9 3.906 5.9 3.906 3.436 5.8 9.01 4.12 11.204 3.153.347-2.452 1.342-4.126 2.445-5.074-8.552-.956-17.541-4.21-17.541-18.746 0-4.14 1.506-7.526 3.966-10.18-.4-.958-1.72-4.814.37-10.037 0 0 3.234-1.021 10.591 3.888 3.07-.84 6.362-1.262 9.632-1.276 3.273.014 6.57.436 9.644 1.276 7.348-4.906 10.578-3.888 10.578-3.888 2.093 5.225.78 9.083.38 10.037 2.468 2.654 3.962 6.04 3.962 10.18 0 14.57-9.01 17.773-17.58 18.712 1.382 1.176 2.615 3.485 2.615 7.022 0 5.072-.044 9.16-.044 10.408 0 1.01.693 2.19 2.646 1.82C65.984 68.898 77 54.682 77 37.931 77 16.986 59.763 0 38.5 0l-.002.013Z" clip-rule="evenodd"/>
</svg>
