<svg xmlns="http://www.w3.org/2000/svg" width="1715" height="451" fill="none" viewBox="0 0 1715 451">
  <path fill="#EEE5E0" d="M0 0h1489.5C1614.04 0 1715 100.96 1715 225.5S1614.04 451 1489.5 451H0V0Z"/>
  <path stroke="#7E8088" d="M44.5 451V0m80 451V0m76 451V0m76 451V0m76 451V0m76 451V0m76 451V0m76 451V0m76 451V0m76 451V0m76 451V0m76 451V0m76 451V0m76 451V0m76 451V0m76 451V0m76 451V0m76 451V0m76 451V0m76 451V0m78 436.002-1.93-421m77.93 373-1-325M1676 99.5 1 100.025M1587 23.5 1 24.025M1709 178.5-.001 178.031M1713 257.5 0 256.037M1687 333.5H0M1612 413 0 412.049"/>
</svg>
