<svg xmlns="http://www.w3.org/2000/svg" width="1034" height="344" fill="none" viewBox="0 0 1034 344">
  <path fill="#EEE5E0" d="M1032.87 0H191.491C85.734 0 0 76.945 0 171.86c0 94.916 85.734 171.861 191.491 171.861L1034 344l-1.13-344Z"/>
  <path stroke="#7E8088" d="M905.732 340V1.862M845.085 340V1.862M784.437 340V1.862M723.789 340V1.862M663.141 340V1.862M602.493 340V1.862M541.845 340V1.862M481.198 340V1.862M420.55 340V1.862M359.902 340V1.862M299.254 340V1.862M238.606 340V1.862M177.958 340V1.862m-62.243 326.893L117.5 15.86M55.067 292.767 56 53.032M34.5 75.831l999.5 1.025M110 19.48h924M5.192 135.693 1034 135.341M2 194.923l1032-1.097M22.748 251.904H1034M82.598 311.509 1034 310.95M965.189 340V0m58.311 340V0"/>
</svg>
