<svg xmlns="http://www.w3.org/2000/svg" width="915" height="337" fill="none" viewBox="0 0 915 337">
  <path fill="#EEE5E0" d="M914 0H169.453C75.867 0 0 75.326 0 168.246c0 92.919 75.867 168.245 169.453 168.245L915 333.5 914 0Z"/>
  <path stroke="#7E8088" d="M911.006 330.535 909.645 0m-57.08 334V0m-57.08 334V0m-57.08 334V0m-57.08 334V0m-57.08 334V0m-57.079 334V0m-57.08 334V0m-57.08 334V0m-57.08 334V0m-57.08 334V0m-57.08 334V0m-57.079 334V0m-57.08 334V0m-58.582 322.893 1.449-311.783m-58.53 276.235.752-240.687m-22.907 27.03L914 74.075M96.632 17.404h816.874M5.004 132.192l908.748-.347M2 190.698l911.755-1.083M21.527 246.982h892.228M77.856 305.858l835.899-.704"/>
</svg>
