<svg xmlns="http://www.w3.org/2000/svg" width="1256" height="451" fill="none" viewBox="0 0 1256 451">
  <path fill="#EEE5E0" d="M0 0h1048.13c114.32 0 207 92.677 207 207v37c0 114.323-92.68 207-207 207H0V0Z"/>
  <path stroke="#7E8088" d="m78.185 0 .004 451M157.742 0l.004 451M237.299 0l.004 451M316.856 0l.004 451M396.413 0l.004 451M475.97 0l.004 451M555.527 0l.004 451M635.084 0l.004 451M714.641 0l.004 451M794.198 0l.004 451M873.755 0l.004 451M953.312 0l.004 451M1032.87 0v451m79.76-441v430m75-385-.01 342m-46.49-374.5L0 22.019M1225.13 99.5 0 100.025m1255.13 78.006H0m1255.13 78.006H0M1235.13 333.5H.128m1168.502 78.549H0"/>
</svg>
