<svg xmlns="http://www.w3.org/2000/svg" width="260" height="153" fill="none" viewBox="0 0 260 153">
  <rect width="239" height="121" x="10.782" y="17.98" fill="#F47E03" rx="20"/>
  <path fill="#fff" d="M39.472 72.83v14.01c0 2.38-.65 4.2-1.95 5.46-1.28 1.26-3.05 1.89-5.31 1.89-2.4 0-4.32-.67-5.76-2.01-1.42-1.34-2.13-3.27-2.13-5.79h5.82c.02 1.66.63 2.49 1.83 2.49 1.08 0 1.62-.68 1.62-2.04V72.83h5.88Zm15.69 17.7h-7.5l-1.14 3.45h-6.18l7.71-21.15h6.78l7.68 21.15h-6.21l-1.14-3.45Zm-1.47-4.5-2.28-6.84-2.25 6.84h4.53Zm30.116-13.2-7.29 21.15h-7.53l-7.32-21.15h6.3l4.8 15.27 4.77-15.27h6.27Zm14.012 17.7h-7.5l-1.14 3.45H83l7.71-21.15h6.78l7.68 21.15h-6.21l-1.14-3.45Zm-1.47-4.5-2.28-6.84-2.25 6.84h4.53Zm-54.791 25.32c0 1.238-.29 2.369-.87 3.393-.561 1.006-1.421 1.818-2.581 2.436-1.141.6-2.543.899-4.205.899H31.09v6.902h-5.684v-20.445h8.497c1.643 0 3.035.29 4.176.87 1.16.58 2.03 1.383 2.61 2.407.58 1.025.87 2.204.87 3.538Zm-8.207 2.204c1.604 0 2.407-.734 2.407-2.204 0-1.488-.803-2.233-2.407-2.233H31.09v4.437h2.262Zm19.683 11.426-4.06-7.54h-.609v7.54h-5.684v-20.445h8.961c1.643 0 3.035.29 4.176.87 1.14.561 2.001 1.344 2.581 2.349.58.986.87 2.098.87 3.335 0 1.392-.387 2.62-1.16 3.683-.754 1.044-1.865 1.789-3.335 2.233l4.611 7.975h-6.35Zm-4.669-11.426h2.813c.773 0 1.353-.183 1.74-.551.387-.367.58-.899.58-1.595 0-.657-.203-1.169-.609-1.537-.386-.386-.957-.58-1.71-.58h-2.814v4.263Zm22.131 11.629c-1.914 0-3.673-.444-5.278-1.334a10.29 10.29 0 0 1-3.828-3.741c-.928-1.604-1.392-3.412-1.392-5.423 0-2.01.464-3.808 1.392-5.394a10.025 10.025 0 0 1 3.828-3.741c1.605-.889 3.364-1.334 5.278-1.334 1.933 0 3.693.445 5.278 1.334a9.819 9.819 0 0 1 3.799 3.741c.928 1.586 1.392 3.384 1.392 5.394 0 2.011-.464 3.819-1.392 5.423a10.072 10.072 0 0 1-3.799 3.741c-1.605.89-3.364 1.334-5.278 1.334Zm0-5.278c1.45 0 2.59-.473 3.422-1.421.85-.947 1.276-2.213 1.276-3.799 0-1.624-.425-2.9-1.276-3.828-.831-.947-1.972-1.421-3.422-1.421-1.47 0-2.62.474-3.451 1.421-.831.928-1.247 2.204-1.247 3.828 0 1.605.416 2.881 1.247 3.828.831.928 1.982 1.392 3.451 1.392Zm24.914-8.642a3.273 3.273 0 0 0-1.363-1.247c-.56-.29-1.228-.435-2-.435-1.431 0-2.563.464-3.394 1.392-.812.928-1.218 2.175-1.218 3.741 0 1.76.435 3.103 1.305 4.031.89.909 2.175 1.363 3.857 1.363 1.992 0 3.412-.899 4.263-2.697h-5.713v-4.089h10.614v5.51c-.445 1.083-1.102 2.098-1.972 3.045-.85.948-1.933 1.731-3.248 2.349-1.314.6-2.813.899-4.495.899-2.05 0-3.867-.435-5.452-1.305a9.423 9.423 0 0 1-3.654-3.683c-.85-1.585-1.276-3.393-1.276-5.423 0-2.01.425-3.799 1.276-5.365a9.18 9.18 0 0 1 3.654-3.683c1.566-.889 3.374-1.334 5.423-1.334 2.572 0 4.698.619 6.38 1.856 1.682 1.238 2.726 2.929 3.132 5.075h-6.119Zm18.091 13.717-4.06-7.54h-.609v7.54h-5.684v-20.445h8.961c1.644 0 3.036.29 4.176.87 1.141.561 2.001 1.344 2.581 2.349.58.986.87 2.098.87 3.335 0 1.392-.386 2.62-1.16 3.683-.754 1.044-1.865 1.789-3.335 2.233l4.611 7.975h-6.351Zm-4.669-11.426h2.813c.774 0 1.354-.183 1.74-.551.387-.367.58-.899.58-1.595 0-.657-.203-1.169-.609-1.537-.386-.386-.957-.58-1.711-.58h-2.813v4.263Zm25.263 8.091h-7.25l-1.102 3.335h-5.974l7.453-20.445h6.554l7.424 20.445h-6.003l-1.102-3.335Zm-1.421-4.35-2.204-6.612-2.175 6.612h4.379Zm33.086-12.76v20.445h-5.684v-11.281l-3.857 11.281h-4.756l-3.886-11.368v11.368h-5.684v-20.445h6.873l5.133 13.282 5.017-13.282h6.844Zm25.942 0v20.445h-5.684v-11.281l-3.857 11.281h-4.756l-3.886-11.368v11.368h-5.684v-20.445h6.873l5.133 13.282 5.017-13.282h6.844Zm7.76 4.553v3.335h6.525v4.321h-6.525v3.683h7.395v4.553h-13.079v-20.445h13.079v4.553h-7.395Zm19.397 15.892-4.06-7.54h-.609v7.54h-5.684v-20.445h8.961c1.643 0 3.035.29 4.176.87 1.14.561 2.001 1.344 2.581 2.349.58.986.87 2.098.87 3.335 0 1.392-.387 2.62-1.16 3.683-.754 1.044-1.866 1.789-3.335 2.233l4.611 7.975h-6.351Zm-4.669-11.426h2.813c.773 0 1.353-.183 1.74-.551.386-.367.58-.899.58-1.595 0-.657-.203-1.169-.609-1.537-.387-.386-.957-.58-1.711-.58h-2.813v4.263Zm-23.193-33.558s-2.733 1.668 1.948 2.23c5.671.68 8.569.582 14.817-.656 0 0 1.646 1.079 3.941 2.014-14.012 6.292-31.71-.365-20.706-3.588Zm-1.713-8.212s-3.066 2.379 1.618 2.887c6.059.656 10.842.71 19.123-.961 0 0 1.143 1.217 2.942 1.882-16.937 5.192-35.802.408-23.683-3.808Z"/>
  <path fill="#fff" stroke="#fff" d="M206.022 42.682c2.159-1.56 4.648-2.74 6.683-3.552-2.119 1.413-3.772 2.666-5.037 3.804-1.895 1.706-2.958 3.187-3.376 4.598-.425 1.435-.162 2.724.427 3.982.479 1.022 1.194 2.063 1.951 3.163.155.226.312.454.468.685.934 1.378 1.11 2.653.881 3.797-.232 1.163-.892 2.236-1.704 3.163-.42.48-.874.913-1.317 1.292a.589.589 0 0 0 .017-.037c.355-.786.602-1.73.516-2.773-.086-1.047-.505-2.158-1.429-3.273-2.855-3.45-3.438-6.34-2.836-8.732.61-2.422 2.465-4.46 4.756-6.117Z"/>
  <path fill="#fff" d="M222.248 86.072s2.023 1.749-2.229 3.1c-8.085 2.568-33.658 3.342-40.76.103-2.552-1.165 2.235-2.78 3.741-3.12 1.57-.357 2.467-.292 2.467-.292-2.84-2.096-18.354 4.117-7.879 5.899 28.564 4.854 52.068-2.186 44.66-5.69Zm-29.934-22.799s-13.007 3.239-4.606 4.416c3.548.498 10.617.384 17.206-.196 5.384-.474 10.786-1.487 10.786-1.487s-1.896.853-3.27 1.835c-13.211 3.643-38.725 1.946-31.379-1.778 6.211-3.148 11.263-2.79 11.263-2.79Zm23.332 13.67c13.428-7.311 7.219-14.339 2.885-13.392-1.059.231-1.534.432-1.534.432s.394-.648 1.146-.927c8.573-3.158 15.165 9.317-2.765 14.259 0-.002.206-.197.268-.371Z"/>
  <path fill="#fff" stroke="#fff" d="M200.18 41.382c7.172-5.935 8.823-10.75 8.779-13.997a8.646 8.646 0 0 0-.504-2.819c.124 2.04-.222 3.843-.906 5.473-.966 2.304-2.591 4.23-4.429 5.976-1.228 1.166-2.579 2.274-3.906 3.363-.648.532-1.29 1.06-1.909 1.586-1.908 1.623-3.627 3.263-4.809 5.124l7.684-4.706Zm0 0c-2.943 2.436-4.629 4.648-5.423 6.722-.799 2.09-.675 3.994-.084 5.764.584 1.75 1.627 3.374 2.656 4.917l.285.426c.279.415.553.825.816 1.231m1.75-19.06-1.75 19.06m0 0c-2.335-2.333-4.278-4.54-5.509-6.65-1.62-2.777-1.958-5.29-.425-7.704l5.934 14.354Z"/>
  <path fill="#fff" d="M193.634 96.765c12.886.863 32.679-.481 33.148-6.873 0 0-.901 2.423-10.651 4.346-11 2.17-24.57 1.917-32.615.525 0 0 1.648 1.43 10.118 2.002Z"/>
  <path fill="url(#a)" d="M107.782 77.48a1.5 1.5 0 1 0 0 3v-3Zm46.06 2.561a1.5 1.5 0 0 0 0-2.121l-9.546-9.546a1.5 1.5 0 1 0-2.121 2.121l8.485 8.486-8.485 8.485a1.5 1.5 0 1 0 2.121 2.121l9.546-9.546Zm-46.06.44h19.5v-3h-19.5v3Zm19.5 0h25.5v-3h-25.5v3Z"/>
  <path fill="#fff" d="M28.442 42.68v2.84h4.58v2.64h-4.58v3.08h5.18v2.74h-8.6V39.94h8.6v2.74h-5.18Zm15.2 11.3-2.86-4.3-2.52 4.3h-3.88l4.5-7.14-4.6-6.9h3.98l2.82 4.24 2.48-4.24h3.88l-4.46 7.08 4.64 6.96h-3.98Zm15.597-9.52a4.58 4.58 0 0 1-.56 2.24c-.373.667-.947 1.207-1.72 1.62-.774.414-1.734.62-2.88.62h-2.12v5.04h-3.42V39.94h5.54c1.12 0 2.066.194 2.84.58.773.387 1.353.92 1.74 1.6.386.68.58 1.46.58 2.34Zm-5.42 1.76c.653 0 1.14-.153 1.46-.46.32-.306.48-.74.48-1.3s-.16-.993-.48-1.3c-.32-.306-.807-.46-1.46-.46h-1.86v3.52h1.86Zm9.82-3.54v2.84h4.58v2.64h-4.58v3.08h5.18v2.74h-8.6V39.94h8.6v2.74h-5.18Zm13.76 11.3-2.92-5.3h-.82v5.3h-3.42V39.94h5.74c1.107 0 2.047.194 2.82.58.787.387 1.374.92 1.76 1.6.387.667.58 1.414.58 2.24 0 .934-.266 1.767-.8 2.5-.52.734-1.293 1.254-2.32 1.56l3.24 5.56H77.4Zm-3.74-7.72h2.12c.627 0 1.094-.153 1.4-.46.32-.306.48-.74.48-1.3 0-.533-.16-.953-.48-1.26-.306-.306-.773-.46-1.4-.46h-2.12v3.48Zm12.247-6.32v14.04h-3.42V39.94h3.42Zm5.099 2.74v2.84h4.58v2.64h-4.58v3.08h5.18v2.74h-8.6V39.94h8.6v2.74h-5.18Zm19.16 11.3h-3.42l-5.72-8.66v8.66h-3.42V39.94h3.42l5.72 8.7v-8.7h3.42v14.04Zm1.099-7.04c0-1.386.3-2.62.9-3.7a6.37 6.37 0 0 1 2.5-2.54c1.08-.613 2.3-.92 3.66-.92 1.667 0 3.094.44 4.28 1.32 1.187.88 1.98 2.08 2.38 3.6h-3.76c-.28-.586-.68-1.033-1.2-1.34-.506-.306-1.086-.46-1.74-.46-1.053 0-1.906.367-2.56 1.1-.653.734-.98 1.714-.98 2.94 0 1.227.327 2.207.98 2.94.654.734 1.507 1.1 2.56 1.1.654 0 1.234-.153 1.74-.46.52-.306.92-.753 1.2-1.34h3.76c-.4 1.52-1.193 2.72-2.38 3.6-1.186.867-2.613 1.3-4.28 1.3-1.36 0-2.58-.3-3.66-.9a6.544 6.544 0 0 1-2.5-2.54c-.6-1.08-.9-2.313-.9-3.7Zm18.435-4.26v2.84h4.58v2.64h-4.58v3.08h5.18v2.74h-8.6V39.94h8.6v2.74h-5.18Zm11.86-2.74c1.48 0 2.773.294 3.88.88a6.2 6.2 0 0 1 2.56 2.48c.613 1.054.92 2.274.92 3.66 0 1.374-.307 2.594-.92 3.66-.6 1.067-1.46 1.894-2.58 2.48-1.107.587-2.393.88-3.86.88h-5.26V39.94h5.26Zm-.22 11.08c1.293 0 2.3-.353 3.02-1.06.72-.706 1.08-1.706 1.08-3 0-1.293-.36-2.3-1.08-3.02-.72-.72-1.727-1.08-3.02-1.08h-1.62v8.16h1.62Zm13.729 3.12c-.6 0-1.093-.173-1.48-.52-.373-.36-.56-.8-.56-1.32 0-.533.187-.98.56-1.34.387-.36.88-.54 1.48-.54.587 0 1.067.18 1.44.54.387.36.58.807.58 1.34 0 .52-.193.96-.58 1.32-.373.347-.853.52-1.44.52Zm0-8.14c-.6 0-1.093-.173-1.48-.52-.373-.36-.56-.8-.56-1.32 0-.533.187-.98.56-1.34.387-.36.88-.54 1.48-.54.587 0 1.067.18 1.44.54.387.36.58.807.58 1.34 0 .52-.193.96-.58 1.32-.373.347-.853.52-1.44.52Z"/>
  <rect width="244.386" height="122.94" x=".862" y="30.409" fill="#DDD" rx="20" transform="rotate(-7.045 .862 30.41)"/>
  <rect width="244.558" height="121" x="1.124" y="25.524" fill="#fff" rx="20" transform="rotate(-4.426 1.124 25.524)"/>
  <rect width="239" height="121" x="10.782" y="17.98" fill="#F47E03" rx="20"/>
  <path fill="#fff" d="M39.472 72.83v14.01c0 2.38-.65 4.2-1.95 5.46-1.28 1.26-3.05 1.89-5.31 1.89-2.4 0-4.32-.67-5.76-2.01-1.42-1.34-2.13-3.27-2.13-5.79h5.82c.02 1.66.63 2.49 1.83 2.49 1.08 0 1.62-.68 1.62-2.04V72.83h5.88Zm15.69 17.7h-7.5l-1.14 3.45h-6.18l7.71-21.15h6.78l7.68 21.15h-6.21l-1.14-3.45Zm-1.47-4.5-2.28-6.84-2.25 6.84h4.53Zm30.116-13.2-7.29 21.15h-7.53l-7.32-21.15h6.3l4.8 15.27 4.77-15.27h6.27Zm14.012 17.7h-7.5l-1.14 3.45H83l7.71-21.15h6.78l7.68 21.15h-6.21l-1.14-3.45Zm-1.47-4.5-2.28-6.84-2.25 6.84h4.53Zm-54.791 25.32c0 1.238-.29 2.369-.87 3.393-.56 1.006-1.421 1.818-2.581 2.436-1.14.6-2.542.899-4.205.899H31.09v6.902h-5.684v-20.445h8.497c1.643 0 3.035.29 4.176.87 1.16.58 2.03 1.383 2.61 2.407.58 1.025.87 2.204.87 3.538Zm-8.207 2.204c1.605 0 2.407-.734 2.407-2.204 0-1.488-.802-2.233-2.407-2.233H31.09v4.437h2.262Zm19.684 11.426-4.06-7.54h-.61v7.54h-5.683v-20.445h8.96c1.644 0 3.036.29 4.177.87 1.14.561 2 1.344 2.58 2.349.58.986.87 2.098.87 3.335 0 1.392-.386 2.62-1.16 3.683-.753 1.044-1.865 1.789-3.334 2.233l4.61 7.975h-6.35Zm-4.67-11.426h2.814c.773 0 1.353-.183 1.74-.551.386-.367.58-.899.58-1.595 0-.657-.203-1.169-.61-1.537-.386-.386-.956-.58-1.71-.58h-2.813v4.263Zm22.131 11.629c-1.914 0-3.673-.444-5.278-1.334a10.29 10.29 0 0 1-3.828-3.741c-.928-1.604-1.392-3.412-1.392-5.423 0-2.01.464-3.808 1.392-5.394a10.027 10.027 0 0 1 3.828-3.741c1.605-.889 3.364-1.334 5.278-1.334 1.934 0 3.693.445 5.278 1.334a9.819 9.819 0 0 1 3.8 3.741c.927 1.586 1.391 3.384 1.391 5.394 0 2.011-.464 3.819-1.392 5.423a10.072 10.072 0 0 1-3.799 3.741c-1.604.89-3.364 1.334-5.278 1.334Zm0-5.278c1.45 0 2.591-.473 3.422-1.421.851-.947 1.276-2.213 1.276-3.799 0-1.624-.425-2.9-1.276-3.828-.83-.947-1.972-1.421-3.422-1.421-1.469 0-2.62.474-3.45 1.421-.832.928-1.248 2.204-1.248 3.828 0 1.605.416 2.881 1.247 3.828.832.928 1.982 1.392 3.451 1.392Zm24.915-8.642a3.273 3.273 0 0 0-1.363-1.247c-.561-.29-1.228-.435-2.001-.435-1.431 0-2.562.464-3.393 1.392-.812.928-1.218 2.175-1.218 3.741 0 1.76.435 3.103 1.305 4.031.889.909 2.175 1.363 3.857 1.363 1.99 0 3.412-.899 4.263-2.697h-5.713v-4.089h10.614v5.51c-.445 1.083-1.102 2.098-1.972 3.045-.851.948-1.934 1.731-3.248 2.349-1.315.6-2.813.899-4.495.899-2.05 0-3.867-.435-5.452-1.305a9.423 9.423 0 0 1-3.654-3.683c-.851-1.585-1.276-3.393-1.276-5.423 0-2.01.425-3.799 1.276-5.365a9.18 9.18 0 0 1 3.654-3.683c1.566-.889 3.373-1.334 5.423-1.334 2.57 0 4.698.619 6.38 1.856 1.682 1.238 2.726 2.929 3.132 5.075h-6.12Zm18.091 13.717-4.06-7.54h-.609v7.54h-5.684v-20.445h8.961c1.643 0 3.035.29 4.176.87 1.141.561 2.001 1.344 2.581 2.349.58.986.87 2.098.87 3.335 0 1.392-.387 2.62-1.16 3.683-.754 1.044-1.866 1.789-3.335 2.233l4.611 7.975h-6.351Zm-4.669-11.426h2.813c.773 0 1.353-.183 1.74-.551.387-.367.58-.899.58-1.595 0-.657-.203-1.169-.609-1.537-.387-.386-.957-.58-1.711-.58h-2.813v4.263Zm25.263 8.091h-7.25l-1.102 3.335h-5.974l7.453-20.445h6.554l7.424 20.445h-6.003l-1.102-3.335Zm-1.421-4.35-2.204-6.612-2.175 6.612h4.379Zm33.085-12.76v20.445h-5.684v-11.281l-3.857 11.281h-4.756l-3.886-11.368v11.368h-5.684v-20.445h6.873l5.133 13.282 5.017-13.282h6.844Zm25.943 0v20.445h-5.684v-11.281l-3.857 11.281h-4.756l-3.886-11.368v11.368h-5.684v-20.445h6.873l5.133 13.282 5.017-13.282h6.844Zm7.759 4.553v3.335h6.525v4.321h-6.525v3.683h7.395v4.553h-13.079v-20.445h13.079v4.553h-7.395Zm19.397 15.892-4.06-7.54h-.609v7.54h-5.684v-20.445h8.961c1.643 0 3.035.29 4.176.87 1.141.561 2.001 1.344 2.581 2.349.58.986.87 2.098.87 3.335 0 1.392-.387 2.62-1.16 3.683-.754 1.044-1.866 1.789-3.335 2.233l4.611 7.975h-6.351Zm-4.669-11.426h2.813c.773 0 1.353-.183 1.74-.551.387-.367.58-.899.58-1.595 0-.657-.203-1.169-.609-1.537-.387-.386-.957-.58-1.711-.58h-2.813v4.263Zm-23.193-33.558s-2.733 1.668 1.948 2.23c5.671.68 8.57.582 14.818-.656 0 0 1.646 1.079 3.94 2.014-14.011 6.292-31.709-.365-20.706-3.588Zm-1.713-8.212s-3.066 2.38 1.619 2.887c6.058.656 10.841.71 19.123-.961 0 0 1.142 1.217 2.942 1.882-16.937 5.192-35.802.408-23.684-3.808Z"/>
  <path fill="#fff" stroke="#fff" d="M206.023 42.682c2.158-1.56 4.647-2.74 6.683-3.552-2.119 1.413-3.773 2.666-5.037 3.804-1.896 1.706-2.959 3.187-3.377 4.598-.425 1.435-.162 2.724.427 3.982.479 1.022 1.194 2.063 1.951 3.163l.469.685c.933 1.378 1.109 2.653.881 3.797-.233 1.163-.893 2.236-1.705 3.163-.419.48-.873.913-1.316 1.292l.017-.037c.354-.786.601-1.73.516-2.773-.086-1.047-.506-2.158-1.429-3.273-2.856-3.45-3.438-6.34-2.836-8.732.609-2.422 2.465-4.46 4.756-6.117Z"/>
  <path fill="#fff" d="M222.248 86.072s2.023 1.749-2.229 3.1c-8.085 2.568-33.658 3.342-40.76.103-2.552-1.165 2.235-2.78 3.741-3.12 1.571-.357 2.467-.292 2.467-.292-2.839-2.096-18.353 4.117-7.879 5.899 28.564 4.854 52.068-2.186 44.66-5.69Zm-29.934-22.799s-13.006 3.239-4.605 4.416c3.547.498 10.617.384 17.206-.196 5.383-.474 10.786-1.487 10.786-1.487s-1.897.853-3.27 1.835c-13.211 3.643-38.725 1.946-31.379-1.778 6.21-3.148 11.262-2.79 11.262-2.79Zm23.333 13.67c13.428-7.311 7.219-14.339 2.885-13.392-1.06.231-1.535.432-1.535.432s.395-.648 1.147-.927c8.573-3.158 15.165 9.317-2.765 14.259 0-.002.205-.197.268-.371Z"/>
  <path fill="#fff" stroke="#fff" d="M200.18 41.382c7.173-5.935 8.824-10.75 8.779-13.997a8.648 8.648 0 0 0-.503-2.819c.124 2.04-.223 3.843-.906 5.473-.966 2.304-2.591 4.23-4.43 5.976-1.228 1.166-2.579 2.274-3.905 3.363-.648.532-1.29 1.06-1.909 1.586-1.908 1.623-3.627 3.263-4.81 5.124l7.684-4.706Zm0 0c-2.942 2.436-4.629 4.648-5.422 6.722-.8 2.09-.675 3.994-.084 5.764.584 1.75 1.627 3.374 2.656 4.917l.285.426c.278.415.552.825.815 1.231m1.75-19.06-1.75 19.06m0 0c-2.335-2.333-4.278-4.54-5.509-6.65-1.62-2.777-1.957-5.29-.425-7.704l5.934 14.354Z"/>
  <path fill="#fff" d="M193.634 96.765c12.886.863 32.68-.481 33.148-6.873 0 0-.901 2.423-10.651 4.346-11 2.17-24.569 1.917-32.615.525 0 0 1.649 1.43 10.118 2.002Z"/>
  <path fill="url(#b)" d="M107.782 77.48a1.5 1.5 0 0 0 0 3v-3Zm46.061 2.561a1.501 1.501 0 0 0 0-2.121l-9.546-9.546a1.5 1.5 0 0 0-2.122 2.121l8.486 8.486-8.486 8.485a1.501 1.501 0 0 0 2.122 2.121l9.546-9.546Zm-46.061.44h19.5v-3h-19.5v3Zm19.5 0h25.5v-3h-25.5v3Z"/>
  <path fill="#fff" d="M28.442 42.68v2.84h4.58v2.64h-4.58v3.08h5.18v2.74h-8.6V39.94h8.6v2.74h-5.18Zm15.2 11.3-2.86-4.3-2.52 4.3h-3.88l4.5-7.14-4.6-6.9h3.98l2.82 4.24 2.48-4.24h3.88l-4.46 7.08 4.64 6.96h-3.98Zm15.597-9.52c0 .814-.186 1.56-.56 2.24-.373.667-.947 1.207-1.72 1.62-.773.414-1.733.62-2.88.62h-2.12v5.04h-3.42V39.94h5.54c1.12 0 2.067.194 2.84.58.774.387 1.354.92 1.74 1.6.387.68.58 1.46.58 2.34Zm-5.42 1.76c.653 0 1.14-.153 1.46-.46.32-.306.48-.74.48-1.3s-.16-.993-.48-1.3c-.32-.306-.807-.46-1.46-.46h-1.86v3.52h1.86Zm9.82-3.54v2.84h4.58v2.64h-4.58v3.08h5.18v2.74h-8.6V39.94h8.6v2.74h-5.18ZM77.4 53.98l-2.92-5.3h-.82v5.3h-3.42V39.94h5.74c1.107 0 2.047.194 2.82.58.787.387 1.373.92 1.76 1.6.387.667.58 1.414.58 2.24 0 .934-.267 1.767-.8 2.5-.52.734-1.293 1.254-2.32 1.56l3.24 5.56H77.4Zm-3.74-7.72h2.12c.627 0 1.093-.153 1.4-.46.32-.306.48-.74.48-1.3 0-.533-.16-.953-.48-1.26-.307-.306-.773-.46-1.4-.46h-2.12v3.48Zm12.247-6.32v14.04h-3.42V39.94h3.42Zm5.098 2.74v2.84h4.58v2.64h-4.58v3.08h5.18v2.74h-8.6V39.94h8.6v2.74h-5.18Zm19.161 11.3h-3.42l-5.72-8.66v8.66h-3.42V39.94h3.42l5.72 8.7v-8.7h3.42v14.04Zm1.099-7.04c0-1.386.3-2.62.9-3.7a6.363 6.363 0 0 1 2.5-2.54c1.08-.613 2.3-.92 3.66-.92 1.666 0 3.093.44 4.28 1.32 1.186.88 1.98 2.08 2.38 3.6h-3.76c-.28-.586-.68-1.033-1.2-1.34-.507-.306-1.087-.46-1.74-.46-1.054 0-1.907.367-2.56 1.1-.654.734-.98 1.714-.98 2.94 0 1.227.326 2.207.98 2.94.653.734 1.506 1.1 2.56 1.1.653 0 1.233-.153 1.74-.46.52-.306.92-.753 1.2-1.34h3.76c-.4 1.52-1.194 2.72-2.38 3.6-1.187.867-2.614 1.3-4.28 1.3-1.36 0-2.58-.3-3.66-.9a6.537 6.537 0 0 1-2.5-2.54c-.6-1.08-.9-2.313-.9-3.7Zm18.434-4.26v2.84h4.58v2.64h-4.58v3.08h5.18v2.74h-8.6V39.94h8.6v2.74h-5.18Zm11.86-2.74c1.48 0 2.774.294 3.88.88a6.2 6.2 0 0 1 2.56 2.48c.614 1.054.92 2.274.92 3.66 0 1.374-.306 2.594-.92 3.66-.6 1.067-1.46 1.894-2.58 2.48-1.106.587-2.393.88-3.86.88h-5.26V39.94h5.26Zm-.22 11.08c1.294 0 2.3-.353 3.02-1.06.72-.706 1.08-1.706 1.08-3 0-1.293-.36-2.3-1.08-3.02-.72-.72-1.726-1.08-3.02-1.08h-1.62v8.16h1.62Zm13.73 3.12c-.6 0-1.093-.173-1.48-.52-.373-.36-.56-.8-.56-1.32 0-.533.187-.98.56-1.34.387-.36.88-.54 1.48-.54.587 0 1.067.18 1.44.54.387.36.58.807.58 1.34 0 .52-.193.96-.58 1.32-.373.347-.853.52-1.44.52Zm0-8.14c-.6 0-1.093-.173-1.48-.52-.373-.36-.56-.8-.56-1.32 0-.533.187-.98.56-1.34.387-.36.88-.54 1.48-.54.587 0 1.067.18 1.44.54.387.36.58.807.58 1.34 0 .52-.193.96-.58 1.32-.373.347-.853.52-1.44.52Z"/>
  <defs>
    <linearGradient id="a" x1="152.782" x2="113.782" y1="79.06" y2="79.06" gradientUnits="userSpaceOnUse">
      <stop stop-color="#fff"/>
      <stop offset="1" stop-color="#fff" stop-opacity="0"/>
    </linearGradient>
    <linearGradient id="b" x1="152.782" x2="113.782" y1="79.06" y2="79.06" gradientUnits="userSpaceOnUse">
      <stop stop-color="#fff"/>
      <stop offset="1" stop-color="#fff" stop-opacity="0"/>
    </linearGradient>
  </defs>
</svg>
