<svg xmlns="http://www.w3.org/2000/svg" width="68" height="67" fill="none" viewBox="0 0 68 67">
  <path fill="#fff" fill-rule="evenodd" d="M4.863 4.362h62.194v61.75H4.863V4.362Z" clip-rule="evenodd"/>
  <path fill="#fff" fill-rule="evenodd" d="m21.216 55.966 4.758-2.859c.916 1.618 1.751 2.985 3.756 2.985 1.918 0 3.132-.744 3.132-3.648V32.709h5.846v19.815c0 6.01-3.548 8.744-8.725 8.744-4.677 0-7.39-2.402-8.767-5.302Zm20.666-.623 4.757-2.734c1.256 2.03 2.88 3.523 5.76 3.523 2.42 0 3.968-1.2 3.968-2.86 0-1.99-1.584-2.693-4.256-3.853l-1.463-.624c-4.216-1.784-7.015-4.02-7.015-8.744 0-4.352 3.34-7.668 8.559-7.668 3.715 0 6.387 1.286 8.305 4.643l-4.55 2.9c-1.002-1.784-2.085-2.488-3.755-2.488-1.711 0-2.8 1.076-2.8 2.488 0 1.738 1.084 2.447 3.59 3.523l1.462.623c4.97 2.115 7.764 4.271 7.764 9.12 0 5.222-4.135 8.081-9.687 8.081-5.421 0-8.928-2.573-10.64-5.93Z" clip-rule="evenodd"/>
  <path fill="#F7DF1E" fill-rule="evenodd" d="M.115.59h61.661v61.222H.115V.59Z" clip-rule="evenodd"/>
  <path fill="#000" fill-rule="evenodd" d="m16.328 51.753 4.717-2.835c.908 1.604 1.736 2.96 3.723 2.96 1.902 0 3.106-.738 3.106-3.618V28.695h5.796V48.34c0 5.959-3.518 8.67-8.651 8.67-4.637 0-7.326-2.382-8.691-5.257Zm20.488-.618 4.717-2.71c1.245 2.013 2.855 3.492 5.71 3.492 2.4 0 3.935-1.19 3.935-2.835 0-1.973-1.57-2.67-4.22-3.821l-1.45-.618c-4.18-1.769-6.956-3.986-6.956-8.669 0-4.315 3.312-7.603 8.486-7.603 3.683 0 6.333 1.276 8.235 4.604l-4.512 2.874c-.993-1.768-2.067-2.466-3.723-2.466-1.696 0-2.775 1.066-2.775 2.466 0 1.724 1.074 2.427 3.558 3.493l1.45.618c4.928 2.097 7.698 4.235 7.698 9.043 0 5.176-4.1 8.011-9.605 8.011-5.374 0-8.852-2.55-10.548-5.879Z" clip-rule="evenodd"/>
</svg>
