<svg xmlns="http://www.w3.org/2000/svg" width="37" height="71" fill="none" viewBox="0 0 37 71">
  <path fill="#fff" d="m17.568.373 2.219 3.768c.498.695 1.039 1.31 1.675 1.884 1.858 1.68 3.622 3.44 5.207 5.323 3.758 4.464 6.294 9.42 8.105 14.781 1.086 3.275 1.675 6.635 1.72 10.031.18 10.156-3.669 18.876-11.431 26.123a32.361 32.361 0 0 1-4.079 3.152c-.768 0-1.133-.533-1.45-1.024-.589-.9-.95-1.927-1.132-2.948-.273-1.23-.452-2.458-.363-3.726v-.573c-.063-.123-.74-56.502-.47-56.79l-.001-.001Z"/>
  <path fill="#599636" d="m17.077 3.387 2.008 3.394c.452.626.941 1.181 1.517 1.698 1.682 1.513 3.279 3.097 4.713 4.795 3.403 4.02 5.699 8.486 7.337 13.314.983 2.95 1.517 5.977 1.557 9.036.164 9.148-3.32 17.003-10.347 23.531a29.28 29.28 0 0 1-3.692 2.84c-.696 0-1.026-.48-1.313-.923-.533-.81-.86-1.735-1.025-2.656-.247-1.107-.409-2.213-.329-3.356v-.516c-.056-.11-.67-50.897-.425-51.157Z"/>
  <path fill="#6CAC48" d="M17.077 3.274c-.082-.148-.164-.036-.247.036.04.74-.247 1.401-.696 2.032-.494.626-1.147 1.107-1.804 1.623-3.645 2.84-6.514 6.27-8.812 10.107C2.461 22.235.885 27.768.44 33.594c-.204 2.102.739 9.517 1.475 11.656 2.008 5.68 5.616 10.439 10.288 14.569 1.148.994 2.375 1.917 3.645 2.804.37 0 .41-.296.494-.517.16-.471.285-.953.369-1.44l.823-5.53-.456-51.862Z"/>
  <path fill="#C2BFBF" d="M19.086 64.242c.082-.847.534-1.55 1.026-2.25-.494-.184-.861-.55-1.148-.958a6.505 6.505 0 0 1-.611-1.217c-.574-1.55-.696-3.175-.861-4.758v-.958c-.204.148-.247 1.4-.247 1.587a33.023 33.023 0 0 1-.739 4.98c-.122.665-.204 1.327-.658 1.917 0 .075 0 .148.04.259.738 1.955.94 3.946 1.065 5.976v.74c0 .885-.04.698.776.995.33.11.696.148 1.025.368.247 0 .287-.184.287-.332l-.122-1.217V65.98c-.04-.593.082-1.181.164-1.735l.003-.003Z"/>
</svg>
