<svg xmlns="http://www.w3.org/2000/svg" width="197" height="177" fill="none" viewBox="0 0 197 177">
  <rect width="168" height="168" x="16" y="4" fill="#A5DC74" rx="84"/>
  <rect width="61" height="61" x="70" y="58" fill="#040403" stroke="#000" stroke-width="10" rx="30.5"/>
  <path fill="#A5DC74" stroke="#A5DC74" d="m98.488 118.826-.009-.005-7.152-4.351c-.283-.16-.505-.318-.654-.485-.151-.17-.293-.43-.207-.735.074-.267.284-.41.394-.473.126-.073.26-.12.343-.148.73-.249 1.137-.393 1.548-.581.41-.187.832-.422 1.578-.859.406-.264.848-.091 1.074.059l5.46 3.344c.033.014.07.022.103.022.015 0 .026-.002.032-.003l.002-.002.014-.008 21.478-12.733.014-.008.014-.007a.053.053 0 0 0 .026-.027.29.29 0 0 0 .024-.134V76.281a.292.292 0 0 0-.024-.135.053.053 0 0 0-.026-.027l-.014-.007-.013-.007-21.461-12.668a.268.268 0 0 0-.138-.02l-.002.002-.015.008-21.478 12.678-.013.007-.009.005a.134.134 0 0 0-.025.038.307.307 0 0 0-.03.126v25.411c0 .035.01.084.03.125a.133.133 0 0 0 .025.038l.01.005.013.008 5.855 3.465c1.47.762 2.572.656 3.282.246.73-.421 1.143-1.214 1.143-2.013v-25.08c0-.569.456-1.162 1.146-1.162h2.745c.584 0 1.146.484 1.146 1.162v25.08c0 2.262-.601 4.12-1.794 5.416-1.197 1.303-2.931 1.974-5.058 1.974h-.01c-.618 0-1.218 0-2.014-.185-.793-.185-1.761-.548-3.152-1.246l-.015-.007-.014-.008-5.652-3.308-.001-.001c-1.557-.919-2.507-2.629-2.507-4.454V76.336c0-1.825.95-3.535 2.506-4.454l21.478-12.733.006-.004c1.5-.86 3.52-.86 5.02 0l.006.004 21.477 12.732-26.505 46.945Zm0 0 .01.006m-.01-.006.01.006m0 0c.764.421 1.6.668 2.502.668.822 0 1.703-.179 2.475-.544l.021-.01m-4.998-.114 4.998.114m0 0 .02-.012m-.02.012.02-.012m0 0 21.477-12.733c1.557-.919 2.507-2.629 2.507-4.454V76.336c0-1.825-.95-3.534-2.506-4.454l-21.478 47.052Zm2.977-27.549h.001c3.53.359 5.338.795 6.259 1.276.443.232.642.454.743.65.105.204.139.44.139.774 0 .555-.108.996-.309 1.352-.2.353-.509.655-.965.903-.934.509-2.442.773-4.686.773-2.838 0-4.442-.362-5.387-.997-.895-.602-1.28-1.508-1.489-2.9-.022-.632-.557-1.01-1.09-1.01h-2.8c-.69 0-1.146.594-1.146 1.162 0 1.957.507 4.15 2.303 5.848 1.79 1.693 4.776 2.81 9.555 2.81 3.475 0 6.269-.698 8.215-2.076 1.969-1.393 3.023-3.45 3.051-6.025v-.005c0-1.239-.204-2.288-.643-3.175-.442-.891-1.107-1.587-1.978-2.14-1.712-1.086-4.252-1.631-7.556-2.071h-.001c-3.357-.444-5.125-.782-6.058-1.184-.451-.193-.643-.376-.739-.538-.099-.167-.143-.386-.143-.76 0-.58.125-1.172.725-1.646.635-.502 1.883-.94 4.32-.94 2.191 0 3.594.25 4.521.804.887.53 1.411 1.386 1.718 2.82.101.504.571.896 1.082.896h2.799c.365 0 .65-.23.788-.371l.035-.035.026-.042c.151-.23.243-.489.243-.769v-.02l-.002-.02c-.224-2.753-1.23-4.835-3.14-6.208-1.886-1.357-4.58-1.969-8.07-1.969-3.131 0-5.697.674-7.494 1.977-1.816 1.316-2.803 3.247-2.803 5.634 0 1.263.24 2.33.723 3.226.483.897 1.192 1.592 2.08 2.134 1.753 1.07 4.236 1.559 7.173 1.862Z"/>
  <path fill="#000" d="m122.63 140.535 4.262-2.855 14.188 6.128-7.06-10.904 4.262-2.856 11.446 17.678-4.262 2.856-14.22-6.179 7.092 10.954-4.261 2.856-11.447-17.678Zm-9.423 1.405c1.975-.534 3.911-.565 5.807-.092 1.876.477 3.517 1.404 4.923 2.779 1.391 1.401 2.356 3.132 2.894 5.191.538 2.06.542 4.039.012 5.937a10.98 10.98 0 0 1-2.917 4.899c-1.416 1.367-3.111 2.318-5.087 2.852-1.975.533-3.9.561-5.777.084a10.212 10.212 0 0 1-4.893-2.788c-1.386-1.381-2.348-3.101-2.885-5.161-.538-2.06-.545-4.049-.021-5.967a10.738 10.738 0 0 1 2.888-4.891c1.396-1.362 3.081-2.309 5.056-2.843Zm1.222 4.679c-1.676.453-2.866 1.374-3.571 2.763-.725 1.395-.848 3.012-.367 4.852.485 1.859 1.381 3.202 2.685 4.026 1.29.851 2.773 1.049 4.449.596 1.696-.458 2.909-1.374 3.639-2.749.711-1.369.82-2.994.329-4.874-.485-1.859-1.373-3.214-2.663-4.064-1.305-.825-2.805-1.008-4.501-.55Zm-19.807 18.063c-2.219-.086-4.14-.601-5.767-1.545-1.627-.944-2.86-2.233-3.7-3.866-.862-1.615-1.255-3.462-1.178-5.54.075-2.059.602-3.87 1.58-5.433.958-1.564 2.293-2.753 4.004-3.568 1.691-.815 3.636-1.18 5.834-1.094l7.884.305-.773 21.046-7.884-.305Zm.94-16.596c-1.939-.076-3.467.395-4.585 1.413-1.118 1.017-1.713 2.495-1.784 4.434-.071 1.939.413 3.469 1.452 4.59 1.04 1.121 2.529 1.719 4.467 1.794l2.429.094.449-12.231-2.428-.094Zm-19.718 9.186 1.36-4.037-6.487-2.262 1.264-3.753 6.487 2.262 1.475-4.378-7.337-2.558 1.313-3.895 12.18 4.247-6.724 19.957-12.18-4.246 1.312-3.895 7.337 2.558Zm-35.129-17.635 10.053-10.226c1.556-1.583 3.197-2.354 4.921-2.311 1.71.028 3.309.799 4.795 2.31 1.557 1.583 2.363 3.302 2.42 5.156.055 1.854-.73 3.608-2.356 5.263l-3.576-3.637c.617-.627.96-1.234 1.03-1.818.057-.571-.154-1.098-.63-1.583-.435-.442-.912-.642-1.43-.599-.52.042-1.045.335-1.578.877l-10.052 10.226-3.597-3.658Zm10.411-21.27c.714 1.365 1.133 2.706 1.259 4.026.125 1.319-.072 2.539-.59 3.661-.53 1.105-1.39 2.003-2.586 2.695l-2.53-4.839c.649-.442 1.052-.966 1.208-1.574.139-.598.036-1.225-.306-1.88-.353-.674-.78-1.125-1.283-1.353-.52-.219-1.053-.18-1.599.115-.457.247-.752.611-.884 1.092a4.082 4.082 0 0 0-.141 1.543c.038.548.152 1.305.341 2.271.26 1.405.406 2.589.435 3.551.029.961-.174 1.912-.608 2.852s-1.231 1.723-2.392 2.352c-1.724.932-3.399 1.031-5.024.296-1.643-.725-2.993-2.098-4.05-4.119-1.074-2.056-1.448-3.979-1.12-5.771.309-1.781 1.311-3.188 3.006-4.219l2.572 4.919c-.58.359-.93.832-1.051 1.421-.139.598-.041 1.216.292 1.854.287.549.669.912 1.144 1.087.457.184.959.129 1.504-.166.598-.324.916-.86.954-1.608.037-.748-.065-1.829-.309-3.243-.225-1.424-.348-2.609-.368-3.553a6.4 6.4 0 0 1 .581-2.838c.417-.93 1.179-1.695 2.287-2.295 1.055-.571 2.158-.814 3.307-.731 1.14.065 2.234.474 3.281 1.226 1.048.752 1.938 1.828 2.67 3.228Zm25.007-81.911-4.262 2.856-14.188-6.128 7.06 10.904-4.262 2.855-11.446-17.678 4.262-2.855 14.22 6.178-7.092-10.954 4.261-2.855 11.447 17.677Zm9.423-1.405c-1.975.534-3.91.565-5.807.093a10.707 10.707 0 0 1-4.923-2.78c-1.391-1.401-2.356-3.131-2.893-5.19-.538-2.06-.543-4.04-.013-5.938a10.975 10.975 0 0 1 2.918-4.899c1.415-1.367 3.11-2.317 5.086-2.851 1.975-.534 3.9-.562 5.777-.084a10.203 10.203 0 0 1 4.893 2.788c1.386 1.38 2.348 3.1 2.886 5.16.537 2.06.544 4.049.02 5.967a10.744 10.744 0 0 1-2.888 4.89c-1.395 1.363-3.08 2.31-5.056 2.844Zm-1.222-4.679c1.676-.453 2.866-1.374 3.571-2.763.725-1.395.848-3.012.367-4.852-.485-1.86-1.38-3.201-2.685-4.026-1.29-.85-2.773-1.05-4.45-.596-1.695.458-2.908 1.375-3.638 2.75-.71 1.369-.82 2.993-.33 4.873.486 1.86 1.374 3.214 2.664 4.065 1.305.824 2.805 1.008 4.501.55Zm19.807-18.062c2.219.086 4.141.6 5.767 1.544 1.627.944 2.86 2.233 3.701 3.867.861 1.614 1.254 3.46 1.177 5.54-.075 2.058-.602 3.869-1.58 5.432-.958 1.564-2.293 2.753-4.004 3.568-1.691.815-3.636 1.18-5.834 1.094l-7.884-.305.773-21.046 7.884.306Zm-.94 16.596c1.939.075 3.467-.396 4.585-1.414 1.118-1.017 1.713-2.495 1.784-4.434.071-1.939-.413-3.468-1.452-4.59-1.04-1.12-2.529-1.719-4.467-1.794l-2.429-.094-.449 12.232 2.428.094Zm19.719-9.186-1.361 4.037 6.487 2.261-1.264 3.753-6.487-2.262-1.475 4.379 7.337 2.558-1.313 3.894-12.18-4.246 6.724-19.958 12.181 4.247-1.312 3.895-7.337-2.558Zm35.128 17.634-10.053 10.227c-1.556 1.583-3.196 2.353-4.921 2.31-1.71-.028-3.309-.798-4.795-2.31-1.557-1.583-2.363-3.302-2.419-5.156-.056-1.854.729-3.608 2.355-5.263l3.576 3.637c-.617.628-.961 1.234-1.031 1.819-.056.57.155 1.098.631 1.583.435.442.912.641 1.43.599.519-.043 1.045-.336 1.578-.878l10.052-10.226 3.597 3.658Zm-10.411 21.27c-.713-1.364-1.133-2.706-1.258-4.025-.126-1.32.071-2.54.59-3.662.528-1.104 1.39-2.003 2.585-2.695l2.53 4.839c-.649.442-1.052.967-1.208 1.574-.138.598-.036 1.225.307 1.88.352.674.779 1.125 1.282 1.353.521.219 1.054.18 1.599-.114.457-.248.752-.612.884-1.093a4.06 4.06 0 0 0 .141-1.543c-.038-.547-.152-1.304-.341-2.27-.261-1.406-.406-2.59-.435-3.551-.029-.962.174-1.913.608-2.853.434-.94 1.231-1.723 2.392-2.351 1.724-.933 3.399-1.032 5.024-.297 1.643.726 2.993 2.099 4.049 4.12 1.075 2.055 1.449 3.979 1.122 5.77-.31 1.782-1.312 3.188-3.007 4.219l-2.572-4.918c.58-.36.93-.833 1.051-1.422.139-.598.042-1.216-.292-1.854-.287-.55-.669-.911-1.144-1.086-.457-.185-.959-.13-1.504.165-.598.324-.916.86-.954 1.608-.037.748.066 1.83.309 3.244.225 1.424.348 2.608.368 3.552a6.406 6.406 0 0 1-.581 2.838c-.417.93-1.179 1.695-2.287 2.295-1.055.57-2.158.815-3.307.732-1.14-.066-2.234-.474-3.281-1.226-1.048-.752-1.938-1.828-2.67-3.229Zm9.233 34.318c.091-2.044.648-3.898 1.673-5.562a10.706 10.706 0 0 1 4.141-3.849c1.757-.9 3.698-1.295 5.824-1.184 2.126.112 4.013.708 5.661 1.788a10.977 10.977 0 0 1 3.784 4.266c.874 1.763 1.266 3.667 1.176 5.711-.09 2.044-.648 3.888-1.671 5.53a10.2 10.2 0 0 1-4.141 3.818c-1.736.903-3.666 1.298-5.792 1.186-2.126-.112-4.023-.708-5.693-1.789a10.753 10.753 0 0 1-3.785-4.235c-.874-1.743-1.267-3.636-1.177-5.68Zm4.83.254c-.077 1.734.44 3.148 1.55 4.24 1.11 1.114 2.614 1.721 4.512 1.821 1.92.101 3.47-.345 4.652-1.338 1.201-.972 1.84-2.325 1.916-4.06.078-1.754-.428-3.188-1.517-4.3-1.089-1.093-2.604-1.69-4.544-1.792-1.919-.1-3.48.335-4.681 1.306-1.181.994-1.811 2.368-1.888 4.123Zm11.926 22.956c-.677 2.115-1.688 3.829-3.033 5.143-1.345 1.314-2.917 2.157-4.716 2.53-1.786.397-3.671.28-5.653-.35-1.963-.625-3.566-1.617-4.811-2.978-1.25-1.342-2.038-2.947-2.364-4.813-.332-1.848-.163-3.819.508-5.915l2.407-7.514 20.069 6.383-2.407 7.514Zm-15.737-5.351c-.592 1.847-.547 3.446.133 4.796.681 1.35 1.946 2.319 3.795 2.907 1.848.588 3.452.531 4.811-.17 1.358-.701 2.333-1.976 2.925-3.823l.741-2.315-11.664-3.709-.741 2.314ZM42.708 90.31c-.09 2.044-.648 3.897-1.673 5.561a10.707 10.707 0 0 1-4.141 3.849c-1.757.901-3.698 1.296-5.824 1.184-2.125-.112-4.013-.708-5.661-1.788a10.977 10.977 0 0 1-3.784-4.265c-.874-1.764-1.266-3.668-1.175-5.712.09-2.044.647-3.887 1.67-5.53a10.204 10.204 0 0 1 4.14-3.818c1.737-.902 3.668-1.297 5.793-1.186 2.126.112 4.024.709 5.693 1.79a10.745 10.745 0 0 1 3.785 4.234c.875 1.743 1.267 3.637 1.177 5.68Zm-4.83-.254c.077-1.735-.44-3.148-1.55-4.241-1.11-1.114-2.614-1.721-4.512-1.82-1.92-.102-3.47.344-4.652 1.338-1.2.971-1.84 2.324-1.916 4.059-.078 1.755.428 3.188 1.517 4.301 1.09 1.092 2.604 1.689 4.544 1.791 1.92.101 3.48-.334 4.681-1.306 1.182-.993 1.811-2.367 1.888-4.122ZM23.757 66.01c.677-2.115 1.688-3.829 3.033-5.143 1.345-1.314 2.917-2.158 4.717-2.53 1.786-.397 3.67-.28 5.652.35 1.964.624 3.567 1.617 4.811 2.978 1.25 1.342 2.039 2.947 2.365 4.813.332 1.848.163 3.82-.508 5.914l-2.407 7.514-20.07-6.383 2.407-7.514Zm15.738 5.35c.592-1.847.547-3.445-.134-4.795-.68-1.35-1.945-2.319-3.794-2.907-1.849-.588-3.452-.531-4.81.17-1.36.701-2.335 1.976-2.927 3.823l-.74 2.314 11.664 3.71.74-2.314Zm131.715-3.21 1.68 3.06-3.69 1.29 3.69 1.26-1.8 3.18-3-2.64.75 3.9h-3.51l.72-3.9-2.97 2.67-1.86-3.24 3.69-1.29-3.66-1.2 1.71-3.09 3.12 2.61-.78-3.96h3.57l-.78 3.96 3.12-2.61Zm-12 62 1.68 3.06-3.69 1.29 3.69 1.26-1.8 3.18-3-2.64.75 3.9h-3.51l.72-3.9-2.97 2.67-1.86-3.24 3.69-1.29-3.66-1.2 1.71-3.09 3.12 2.61-.78-3.96h3.57l-.78 3.96 3.12-2.61Zm-125-24 1.68 3.06-3.69 1.29 3.69 1.26-1.8 3.18-3-2.64.75 3.9h-3.51l.72-3.9-2.97 2.67-1.86-3.24 3.69-1.29-3.66-1.2 1.71-3.09 3.12 2.61-.78-3.96h3.57l-.78 3.96 3.12-2.61Zm13-66 1.68 3.06-3.69 1.29 3.69 1.26-1.8 3.18-3-2.64.75 3.9h-3.51l.72-3.9-2.97 2.67-1.86-3.24 3.69-1.29-3.66-1.2 1.71-3.09 3.12 2.61-.78-3.96h3.57l-.78 3.96 3.12-2.61Z"/>
</svg>
