<svg xmlns="http://www.w3.org/2000/svg" width="69" height="76" fill="none" viewBox="0 0 69 76">
  <path fill="#fff" stroke="#fff" d="m32.737 74.72.01.005.008.005c.918.49 1.918.776 2.995.776.986 0 2.043-.208 2.968-.632l.02-.01.02-.011 26.21-15.069a5.998 5.998 0 0 0 3.01-5.195V24.516a5.998 5.998 0 0 0-3.01-5.195l-26.21-15.07-.006-.004c-1.793-.997-4.21-.997-6.004 0l-.006.004L6.532 19.32a5.998 5.998 0 0 0-3.01 5.196V54.59a5.998 5.998 0 0 0 3.01 5.195l.002.001L13.43 63.7l.014.008.014.007c1.694.824 2.865 1.25 3.82 1.465.958.216 1.678.216 2.432.216h.01c2.567 0 4.65-.784 6.087-2.3 1.434-1.513 2.165-3.689 2.165-6.354v-29.68c0-.763-.649-1.284-1.288-1.284h-3.35c-.76 0-1.289.64-1.289 1.283v29.681a2.83 2.83 0 0 1-1.444 2.459c-.91.51-2.303.627-4.125-.29L9.33 54.807l-.013-.007-.014-.007c-.011-.006-.041-.027-.071-.087a.43.43 0 0 1-.045-.183V24.451a.43.43 0 0 1 .045-.183c.03-.06.06-.081.071-.087l.013-.006.013-.008 26.21-15.003.015-.008.013-.01c0 .001 0 .001 0 0 .006-.001.035-.014.094-.014.061 0 .128.014.186.04L62.04 24.168l.013.008.013.006c.051.026.117.083.117.27v30.072c0 .188-.066.244-.117.27l-.014.007-.013.007-26.21 15.07-.014.007-.013.009c.003-.003-.025.014-.094.014a.458.458 0 0 1-.183-.039l-6.672-3.962c-.26-.168-.743-.346-1.18-.069-1.8 1.021-2.1 1.14-3.84 1.715-.1.033-.255.086-.397.166-.125.07-.354.221-.435.504-.094.327.061.607.233.794.171.186.43.367.772.554l8.73 5.15Zm9.73-32.485c4.307.425 6.535.942 7.682 1.522.557.283.817.56.951.812.138.259.179.555.179.952 0 .666-.134 1.203-.388 1.64-.253.434-.646.804-1.218 1.106-1.168.617-3.034.929-5.777.929-3.468 0-5.458-.428-6.641-1.2-1.13-.735-1.604-1.84-1.86-3.496-.023-.705-.631-1.11-1.221-1.11h-3.416c-.76 0-1.289.64-1.289 1.283 0 2.305.617 4.874 2.782 6.86 2.157 1.976 5.766 3.295 11.58 3.295 4.225 0 7.607-.825 9.955-2.437 2.373-1.628 3.648-4.033 3.682-7.06v-.006c0-1.458-.247-2.686-.776-3.721-.531-1.04-1.33-1.85-2.377-2.494-2.065-1.27-5.14-1.914-9.173-2.434-4.092-.525-6.269-.927-7.426-1.41-.564-.235-.82-.463-.95-.677-.134-.218-.187-.496-.187-.94 0-.697.154-1.43.92-2.017.805-.617 2.361-1.136 5.346-1.136 2.679 0 4.42.296 5.58.968 1.117.648 1.766 1.689 2.142 3.398.116.563.653.983 1.212.983h3.416c.395 0 .713-.243.877-.406l.036-.035.027-.041c.176-.261.282-.553.282-.866v-.021l-.002-.021c-.272-3.244-1.492-5.679-3.792-7.283-2.273-1.586-5.531-2.308-9.778-2.308-3.805 0-6.908.794-9.074 2.317-2.187 1.538-3.382 3.795-3.382 6.598 0 1.485.293 2.735.873 3.78.58 1.046 1.432 1.856 2.501 2.489 2.115 1.251 5.12 1.828 8.704 2.187Z"/>
  <path fill="#83CD29" stroke="#80D25B" stroke-width=".5" d="m29.38 72.492.01.005c.872.481 1.818.759 2.835.759a6.74 6.74 0 0 0 2.822-.62l.01-.004.01-.006 25.795-15.281c1.76-1.039 2.838-2.974 2.838-5.044V21.805c0-2.07-1.079-4.006-2.838-5.045L35.068 1.48l-.003-.002c-1.694-.97-3.986-.97-5.68 0l-.003.002L3.588 16.76C1.828 17.8.75 19.734.75 21.805V52.3c0 2.07 1.079 4.006 2.838 5.045h.001l6.788 3.97.007.004.007.003c1.658.832 2.793 1.254 3.708 1.467.917.213 1.604.213 2.346.213h.006c2.478 0 4.458-.779 5.816-2.255 1.356-1.473 2.062-3.608 2.062-6.264V24.386c0-.61-.508-1.044-1.025-1.044h-3.297c-.61 0-1.026.528-1.026 1.044v30.098c0 1.076-.556 2.147-1.548 2.72-.982.566-2.439.668-4.287-.292l-7.04-4.164-.007-.004-.007-.004a.432.432 0 0 1-.18-.2.717.717 0 0 1-.072-.305V21.738c0-.094.024-.205.072-.303a.431.431 0 0 1 .18-.202l.006-.003.007-.004L31.899 6.011l.008-.004.006-.004c.099-.068.317-.086.515.012l25.788 15.211.006.004.007.003c.153.078.252.24.252.505v30.496c0 .265-.1.427-.252.505l-.007.004-.007.004-25.794 15.28-.007.005-.007.005c-.098.066-.315.085-.513-.013l-6.58-4.026c-.224-.151-.597-.279-.915-.068-.901.527-1.423.818-1.935 1.05-.512.235-1.017.413-1.892.711a2.001 2.001 0 0 0-.349.15c-.11.063-.26.174-.312.359-.057.203.03.394.174.554.141.16.37.328.7.514l8.595 5.224Zm9.478-32.975c4.237.43 6.471.957 7.644 1.57.578.3.879.613 1.042.93.165.319.205.671.205 1.088 0 .712-.139 1.304-.416 1.795-.277.49-.7.895-1.296 1.219-1.203.655-3.089.97-5.796.97-3.419 0-5.438-.432-6.664-1.256-1.202-.807-1.687-2.021-1.942-3.74-.011-.548-.468-.891-.962-.891h-3.361c-.61 0-1.026.528-1.026 1.044 0 2.29.593 4.815 2.656 6.763 2.06 1.946 5.544 3.277 11.235 3.277 4.133 0 7.408-.832 9.664-2.427 2.267-1.604 3.482-3.963 3.515-6.95v-.002c0-1.45-.238-2.651-.736-3.654-.498-1.006-1.25-1.795-2.248-2.428-1.984-1.257-4.961-1.906-8.934-2.435-4.018-.53-6.195-.94-7.369-1.445-.579-.25-.882-.508-1.05-.789-.168-.283-.22-.624-.22-1.09 0-.754.166-1.59 1.003-2.252.855-.675 2.45-1.203 5.405-1.203 2.643 0 4.41.3 5.61 1.015 1.179.704 1.847 1.836 2.226 3.615.088.445.512.795.956.795h3.362c.296 0 .551-.192.696-.34l.017-.018.014-.02c.15-.231.234-.477.234-.732v-.02c-.264-3.23-1.436-5.62-3.627-7.195-2.18-1.566-5.328-2.296-9.488-2.296-3.716 0-6.716.8-8.793 2.305-2.088 1.512-3.223 3.722-3.223 6.478 0 1.471.281 2.692.827 3.705.546 1.015 1.35 1.806 2.372 2.43 2.032 1.238 4.943 1.82 8.468 2.184Z"/>
</svg>
