<svg xmlns="http://www.w3.org/2000/svg" width="1281" height="587" fill="none" viewBox="0 0 1281 587">
  <mask id="a" width="1280" height="583" x="0" y="0" maskUnits="userSpaceOnUse" style="mask-type:alpha">
    <path fill="#C4C4C4" d="m29.462 14.704 42.614 6.965 18.413-6.965h78.915l74.18 6.965h126.79l56.819-6.965 142.573-6.965 113.111 6.965 39.984 22.055 10.522-29.02 97.328 6.965h137.312L1084.29 0l82.07 7.739L1213.97 0l35.55 14.704-7.21 17.412 3.6 4.643-3.6 5.417 4.63 3.096 2.58 5.804-3.61 3.87 5.15 4.643-5.15 10.834 1.03 5.03v5.417l1.55 4.257v5.804l-3.09 7.352 3.09 4.256-2.58 6.965v4.643l-1.03 6.191 3.61 9.287-1.03 3.482-7.73 19.347-3.09 27.86 6.7 21.668-15.46 4.257 4.12 19.734v20.507l-10.82 30.182-7.21.773 6.18 13.543 7.73 25.925 4.12 16.639 19.59 22.829 21.04-3.095-14.2 13.929 6.31 29.021-6.31 13.156 21.57 13.156v25.925l-26.31 20.507-4.17 21.669h-11.61l11.61 71.197-114.2 10.06-100.48-10.06-188.872 10.06-21.57 10.448-55.241-10.448H609.223l-22.622 10.448H470.333l-71.024-20.508-148.886 10.06-22.096 10.448-138.364-33.277-74.18 12.769v-55.719H0l15.783-15.478 4.209-53.785 12.626-46.432-16.835-37.146 13.679-49.916-9.47-61.523 9.47-68.101 13.678-21.282-13.678-32.116V70.423L15.783 36.759l13.679-22.055Z"/>
    <path fill="#C4C4C4" fill-opacity=".3" d="m29.462 14.704 42.614 6.965 18.413-6.965h78.915l74.18 6.965h126.79l56.819-6.965 142.573-6.965 113.111 6.965 39.984 22.055 10.522-29.02 97.328 6.965h137.312L1084.29 0l82.07 7.739L1213.97 0l35.55 14.704-7.21 17.412 3.6 4.643-3.6 5.417 4.63 3.096 2.58 5.804-3.61 3.87 5.15 4.643-5.15 10.834 1.03 5.03v5.417l1.55 4.257v5.804l-3.09 7.352 3.09 4.256-2.58 6.965v4.643l-1.03 6.191 3.61 9.287-1.03 3.482-7.73 19.347-3.09 27.86 6.7 21.668-15.46 4.257 4.12 19.734v20.507l-10.82 30.182-7.21.773 6.18 13.543 7.73 25.925 4.12 16.639 19.59 22.829 21.04-3.095-14.2 13.929 6.31 29.021-6.31 13.156 21.57 13.156v25.925l-26.31 20.507-4.17 21.669h-11.61l11.61 71.197-114.2 10.06-100.48-10.06-188.872 10.06-21.57 10.448-55.241-10.448H609.223l-22.622 10.448H470.333l-71.024-20.508-148.886 10.06-22.096 10.448-138.364-33.277-74.18 12.769v-55.719H0l15.783-15.478 4.209-53.785 12.626-46.432-16.835-37.146 13.679-49.916-9.47-61.523 9.47-68.101 13.678-21.282-13.678-32.116V70.423L15.783 36.759l13.679-22.055Z"/>
  </mask>
  <g mask="url(#a)">
    <path fill="#fff" d="M1292.93 204.106H0v-250.07h1292.93v250.07Z"/>
    <path fill="#fff" d="M1292.93 418.051H0v-250.07h1292.93v250.07Z"/>
    <path fill="#fff" d="M1292.93 629.69H0V379.619h1292.93V629.69Z"/>
  </g>
  <g filter="url(#b)">
    <mask id="c" width="1248" height="557" x="13" y="11" maskUnits="userSpaceOnUse" style="mask-type:alpha">
      <path fill="#C4C4C4" d="m42.68 25.062 41.516 6.66 17.939-6.66h76.882l72.269 6.66h123.523l55.355-6.66 138.9-6.661 110.197 6.66 38.953 21.094L728.465 18.4l94.821 6.66h133.775L1070.33 11l79.96 7.401L1196.67 11l34.63 14.062-7.02 16.652 3.51 4.44-3.51 5.181 4.51 2.96 2.51 5.551-3.51 3.7 5.02 4.441-5.02 10.362 1 4.81v5.181l1.51 4.07v5.551l-3.01 7.031 3.01 4.071-2.51 6.661v4.44l-1 5.921 3.51 8.881-1 3.331-7.53 18.502-3.01 26.644 6.52 20.722-15.06 4.071 4.02 18.872v19.613l-10.54 28.864-7.03.74 6.02 12.952 7.53 24.793 4.02 15.912 19.08 21.833 20.5-2.961-13.83 13.322 6.15 27.754-6.15 12.582 21.01 12.581v24.793l-25.63 19.613-4.07 20.723H1220l11.3 68.089-111.25 9.621-97.9-9.621-184 9.621-21.014 9.991-53.818-9.991H607.505l-22.04 9.991H472.193l-69.194-19.612-145.05 9.621-21.527 9.991-134.8-31.824-72.269 12.212v-53.287H13.977l15.376-14.802 4.1-51.437 12.302-44.406-16.402-35.525 13.327-47.736-9.226-58.838 9.226-65.128 13.326-20.353-13.326-30.714V78.349L29.353 46.155 42.68 25.062Z"/>
      <path fill="#C4C4C4" fill-opacity=".3" d="m42.68 25.062 41.516 6.66 17.939-6.66h76.882l72.269 6.66h123.523l55.355-6.66 138.9-6.661 110.197 6.66 38.953 21.094L728.465 18.4l94.821 6.66h133.775L1070.33 11l79.96 7.401L1196.67 11l34.63 14.062-7.02 16.652 3.51 4.44-3.51 5.181 4.51 2.96 2.51 5.551-3.51 3.7 5.02 4.441-5.02 10.362 1 4.81v5.181l1.51 4.07v5.551l-3.01 7.031 3.01 4.071-2.51 6.661v4.44l-1 5.921 3.51 8.881-1 3.331-7.53 18.502-3.01 26.644 6.52 20.722-15.06 4.071 4.02 18.872v19.613l-10.54 28.864-7.03.74 6.02 12.952 7.53 24.793 4.02 15.912 19.08 21.833 20.5-2.961-13.83 13.322 6.15 27.754-6.15 12.582 21.01 12.581v24.793l-25.63 19.613-4.07 20.723H1220l11.3 68.089-111.25 9.621-97.9-9.621-184 9.621-21.014 9.991-53.818-9.991H607.505l-22.04 9.991H472.193l-69.194-19.612-145.05 9.621-21.527 9.991-134.8-31.824-72.269 12.212v-53.287H13.977l15.376-14.802 4.1-51.437 12.302-44.406-16.402-35.525 13.327-47.736-9.226-58.838 9.226-65.128 13.326-20.353-13.326-30.714V78.349L29.353 46.155 42.68 25.062Z"/>
    </mask>
    <g mask="url(#c)">
      <path fill="#EEE5E0" d="M1261.3 224.251H1.677V-14.904H1261.3v239.155Z"/>
      <path stroke="#7E8088" stroke-opacity=".44" d="M1228.74-14.904v239.155m-58.75-239.155v239.155m-55.82-239.155v239.155m-55.82-239.155v239.155m-55.82-239.155v239.155M946.706-14.904v239.155m-55.82-239.155v239.155M835.067-14.904v239.155m-55.82-239.155v239.155m-55.82-239.155v239.155m-55.82-239.155v239.155m-55.82-239.155v239.155M555.968-14.904v239.155m-55.82-239.155v239.155M444.329-14.904v239.155M388.508-14.904v239.155m-55.82-239.155v239.155m-55.82-239.155v239.155M221.049-14.904v239.155m-55.82-239.155v239.155M107.939-6.953l1.576 213.949M52.12 18.503V223"/>
      <path stroke="#7E8088" stroke-opacity=".44" d="M0-.5h1230.24" transform="matrix(1 0 .0002 1 30.32 171.753)"/>
      <path stroke="#7E8088" stroke-opacity=".44" d="M0-.5h1164.87" transform="matrix(1 0 .00023 1 95.687 212.054)"/>
      <path stroke="#7E8088" stroke-opacity=".44" d="M0-.5h1255.21" transform="matrix(1 0 -.00017 1 6.083 129.862)"/>
      <path stroke="#7E8088" stroke-opacity=".44" d="M0-.5h1258.15" transform="matrix(1 0 -.00056 1 3.145 87.97)"/>
      <path stroke="#7E8088" stroke-opacity=".44" d="M22.242 47.169H1261.3"/>
      <path fill="#EEE5E0" d="M1261.3 428.857H1.677V189.703H1261.3v239.154Z"/>
      <path stroke="#7E8088" stroke-opacity=".44" d="M1228.74 189.703v239.154m-58.75-239.154v239.154m-55.82-239.154v239.154m-55.82-239.154v239.154m-55.82-239.154v239.154m-55.824-239.154v239.154m-55.82-239.154v239.154m-55.819-239.154v239.154m-55.82-239.154v239.154m-55.82-239.154v239.154m-55.82-239.154v239.154m-55.82-239.154v239.154m-55.819-239.154v239.154m-55.82-239.154v239.154m-55.819-239.154v239.154m-55.821-239.154v239.154m-55.82-239.154v239.154m-55.82-239.154v239.154m-55.819-239.154v239.154m-55.82-239.154v239.154m-55.872-239.203v231.25M52 189.5l.855 205.948"/>
      <path stroke="#7E8088" stroke-opacity=".44" d="M0-.5h1230.24" transform="matrix(1 0 .0002 1 30.32 376.36)"/>
      <path stroke="#7E8088" stroke-opacity=".44" d="M0-.5h1164.87" transform="matrix(1 0 .00023 1 95.687 416.661)"/>
      <path stroke="#7E8088" stroke-opacity=".44" d="M0-.5h1255.21" transform="matrix(1 0 -.00017 1 6.083 334.468)"/>
      <path stroke="#7E8088" stroke-opacity=".44" d="M0-.5h1258.15" transform="matrix(1 0 -.00056 1 3.145 292.576)"/>
      <path stroke="#7E8088" stroke-opacity=".44" d="M22.242 251.775H1261.3M38 210l1223.3.357"/>
      <path fill="#EEE5E0" d="M1261.3 631.257H1.677V392.103H1261.3v239.154Z"/>
      <path stroke="#7E8088" stroke-opacity=".44" d="M1228.74 392.103v239.154m-58.75-239.154v239.154m-55.82-239.154v239.154m-55.82-239.154v239.154m-55.82-239.154v239.154m-55.824-239.154v239.154m-55.82-239.154v239.154m-55.819-239.154v239.154m-55.82-239.154v239.154m-55.82-239.154v239.154m-55.82-239.154v239.154m-55.82-239.154v239.154m-55.819-239.154v239.154m-55.82-239.154v239.154m-55.819-239.154v239.154m-55.821-239.154v239.154m-55.82-239.154v239.154m-55.82-239.154v239.154m-55.819-239.154v239.154m-55.82-239.154v239.154M109.357 392v146.5M52.855 392v205.848"/>
      <path stroke="#7E8088" stroke-opacity=".44" d="M0-.5h1255.21" transform="matrix(1 0 -.00017 1 6.083 536.868)"/>
      <path stroke="#7E8088" stroke-opacity=".44" d="M0-.5h1258.15" transform="matrix(1 0 -.00056 1 3.145 494.977)"/>
      <path stroke="#7E8088" stroke-opacity=".44" d="M22.242 454.176H1261.3M38 412l1223.3.758"/>
    </g>
  </g>
  <defs>
    <filter id="b" width="1277.02" height="586.923" x="3.977" y="0" color-interpolation-filters="sRGB" filterUnits="userSpaceOnUse">
      <feFlood flood-opacity="0" result="BackgroundImageFix"/>
      <feColorMatrix in="SourceAlpha" result="hardAlpha" values="0 0 0 0 0 0 0 0 0 0 0 0 0 0 0 0 0 0 127 0"/>
      <feMorphology in="SourceAlpha" operator="dilate" radius="7" result="effect1_dropShadow_401_15"/>
      <feOffset dx="5" dy="4"/>
      <feGaussianBlur stdDeviation="4"/>
      <feColorMatrix values="0 0 0 0 0 0 0 0 0 0 0 0 0 0 0 0 0 0 0.25 0"/>
      <feBlend in2="BackgroundImageFix" result="effect1_dropShadow_401_15"/>
      <feBlend in="SourceGraphic" in2="effect1_dropShadow_401_15" result="shape"/>
    </filter>
  </defs>
</svg>
