<svg xmlns="http://www.w3.org/2000/svg" width="178" height="177" fill="none" viewBox="0 0 178 177">
  <rect width="174" height="170" x="4" y="7" fill="#fff" rx="84"/>
  <rect width="168" height="168" fill="#70CDC5" rx="84"/>
  <rect width="168" height="168" fill="#70CDC5" rx="84"/>
  <path fill="#0A0A0A" d="M71.893 33.325c-10.18 14.54-12.951 30.164-6.189 34.9 6.763 4.734 20.497-3.213 30.678-17.752 10.18-14.54 12.951-30.164 6.189-34.9-6.763-4.735-20.498 3.213-30.678 17.752Zm21.95 15.37c-8.07 11.526-18.957 17.826-24.318 14.072-5.36-3.753-3.164-16.14 4.906-27.665 8.07-11.525 18.958-17.825 24.319-14.072 5.36 3.754 3.164 16.14-4.906 27.665Z"/>
  <path fill="#0A0A0A" d="M96.382 33.325c10.18 14.54 12.951 30.164 6.188 34.9-6.762 4.734-20.497-3.213-30.677-17.752-10.18-14.54-12.951-30.164-6.189-34.9 6.763-4.735 20.497 3.213 30.678 17.752ZM74.43 48.695c8.07 11.526 18.958 17.826 24.319 14.072 5.36-3.753 3.164-16.14-4.906-27.665-8.07-11.525-18.958-17.825-24.319-14.072-5.36 3.754-3.164 16.14 4.906 27.665Z"/>
  <path fill="#0A0A0A" d="M84.137 26.951c17.749 0 32.138 6.693 32.138 14.948s-14.389 14.947-32.138 14.947S52 50.154 52 41.9c0-8.255 14.388-14.948 32.137-14.948Zm0 26.797c14.07 0 25.476-5.305 25.476-11.85 0-6.543-11.406-11.848-25.476-11.848-14.07 0-25.476 5.305-25.476 11.849 0 6.544 11.406 11.85 25.476 11.85Z"/>
  <circle cx="85.073" cy="42.411" r="5.995" fill="#0A0A0A"/>
  <path fill="#0A0A0A" d="m30.39 98-4.2-7.8h-.63V98h-5.88V76.85h9.27c1.7 0 3.14.3 4.32.9 1.18.58 2.07 1.39 2.67 2.43.6 1.02.9 2.17.9 3.45 0 1.44-.4 2.71-1.2 3.81-.78 1.08-1.93 1.85-3.45 2.31L36.96 98h-6.57Zm-4.83-11.82h2.91c.8 0 1.4-.19 1.8-.57.4-.38.6-.93.6-1.65 0-.68-.21-1.21-.63-1.59-.4-.4-.99-.6-1.77-.6h-2.91v4.41Zm18.634-4.62v3.45h6.75v4.47h-6.75v3.81h7.65V98h-13.53V76.85h13.53v4.71h-7.65ZM66.93 94.55h-7.5L58.29 98h-6.18l7.71-21.15h6.78L74.28 98h-6.21l-1.14-3.45Zm-1.47-4.5-2.28-6.84-2.25 6.84h4.53Zm8.816-2.67c0-2.08.43-3.93 1.29-5.55.88-1.64 2.12-2.91 3.72-3.81 1.6-.92 3.44-1.38 5.52-1.38 2.64 0 4.86.71 6.66 2.13 1.8 1.4 2.96 3.31 3.48 5.73h-6.33c-.38-.8-.91-1.41-1.59-1.83-.66-.42-1.43-.63-2.31-.63-1.36 0-2.45.49-3.27 1.47-.8.96-1.2 2.25-1.2 3.87 0 1.64.4 2.95 1.2 3.93.82.96 1.91 1.44 3.27 1.44.88 0 1.65-.21 2.31-.63.68-.42 1.21-1.03 1.59-1.83h6.33c-.52 2.42-1.68 4.34-3.48 5.76-1.8 1.4-4.02 2.1-6.66 2.1-2.08 0-3.92-.45-5.52-1.35a9.6 9.6 0 0 1-3.72-3.81c-.86-1.64-1.29-3.51-1.29-5.61Zm38.184-10.53v4.68h-5.64V98h-5.88V81.53h-5.58v-4.68h17.1Zm19.528 0v14.01c0 2.38-.65 4.2-1.95 5.46-1.28 1.26-3.05 1.89-5.31 1.89-2.4 0-4.32-.67-5.76-2.01-1.42-1.34-2.13-3.27-2.13-5.79h5.82c.02 1.66.63 2.49 1.83 2.49 1.08 0 1.62-.68 1.62-2.04V76.85h5.88Zm10.29 21.36c-2.46 0-4.48-.58-6.06-1.74-1.58-1.18-2.43-2.86-2.55-5.04h6.27c.06.74.28 1.28.66 1.62.38.34.87.51 1.47.51.54 0 .98-.13 1.32-.39.36-.28.54-.66.54-1.14 0-.62-.29-1.1-.87-1.44-.58-.34-1.52-.72-2.82-1.14-1.38-.46-2.5-.9-3.36-1.32-.84-.44-1.58-1.07-2.22-1.89-.62-.84-.93-1.93-.93-3.27 0-1.36.34-2.52 1.02-3.48.68-.98 1.62-1.72 2.82-2.22 1.2-.5 2.56-.75 4.08-.75 2.46 0 4.42.58 5.88 1.74 1.48 1.14 2.27 2.75 2.37 4.83h-6.39c-.02-.64-.22-1.12-.6-1.44-.36-.32-.83-.48-1.41-.48-.44 0-.8.13-1.08.39s-.42.63-.42 1.11c0 .4.15.75.45 1.05.32.28.71.53 1.17.75.46.2 1.14.46 2.04.78 1.34.46 2.44.92 3.3 1.38.88.44 1.63 1.07 2.25 1.89.64.8.96 1.82.96 3.06 0 1.26-.32 2.39-.96 3.39-.62 1-1.53 1.79-2.73 2.37-1.18.58-2.58.87-4.2.87Z"/>
  <path fill="#000" d="M42.954 114.636c.912 0 1.7.172 2.364.516.672.336 1.184.82 1.536 1.452.36.632.54 1.376.54 2.232 0 .856-.18 1.6-.54 2.232a3.524 3.524 0 0 1-1.536 1.44c-.664.328-1.452.492-2.364.492H40.35v-8.364h2.604Zm0 7.464c1.08 0 1.904-.284 2.472-.852.568-.576.852-1.38.852-2.412 0-1.04-.288-1.852-.864-2.436-.568-.584-1.388-.876-2.46-.876h-1.512v6.576h1.512Zm6.493-6.576v2.796h3.048v.9h-3.048v2.88h3.408v.9h-4.5v-8.376h4.5v.9h-3.408Zm7.232 7.56a3.685 3.685 0 0 1-1.488-.288 2.542 2.542 0 0 1-1.02-.816 2.119 2.119 0 0 1-.384-1.212h1.164c.04.392.2.724.48.996.288.264.704.396 1.248.396.52 0 .928-.128 1.224-.384.304-.264.456-.6.456-1.008 0-.32-.088-.58-.264-.78a1.687 1.687 0 0 0-.66-.456c-.264-.104-.62-.216-1.068-.336a9.703 9.703 0 0 1-1.332-.432 2.212 2.212 0 0 1-.852-.672c-.232-.312-.348-.728-.348-1.248 0-.456.116-.86.348-1.212.232-.352.556-.624.972-.816.424-.192.908-.288 1.452-.288.784 0 1.424.196 1.92.588.504.392.788.912.852 1.56h-1.2c-.04-.32-.208-.6-.504-.84-.296-.248-.688-.372-1.176-.372-.456 0-.828.12-1.116.36-.288.232-.432.56-.432.984 0 .304.084.552.252.744.176.192.388.34.636.444.256.096.612.208 1.068.336.552.152.996.304 1.332.456.336.144.624.372.864.684.24.304.36.72.36 1.248 0 .408-.108.792-.324 1.152-.216.36-.536.652-.96.876-.424.224-.924.336-1.5.336Zm5.003-8.448V123H60.59v-8.364h1.092Zm7.717 2.424a2.563 2.563 0 0 0-1.008-1.128c-.44-.272-.952-.408-1.536-.408-.584 0-1.112.136-1.584.408a2.842 2.842 0 0 0-1.104 1.152c-.264.496-.396 1.072-.396 1.728 0 .656.132 1.232.396 1.728.272.496.64.88 1.104 1.152.472.264 1 .396 1.584.396.816 0 1.488-.244 2.016-.732s.836-1.148.924-1.98H66.46v-.888h4.5v.84a4.193 4.193 0 0 1-.648 1.896 4.074 4.074 0 0 1-1.452 1.356c-.6.328-1.268.492-2.004.492-.776 0-1.484-.18-2.124-.54a4.097 4.097 0 0 1-1.524-1.524c-.368-.648-.552-1.38-.552-2.196 0-.816.184-1.548.552-2.196a3.984 3.984 0 0 1 1.524-1.524 4.185 4.185 0 0 1 2.124-.552c.888 0 1.672.22 2.352.66.688.44 1.188 1.06 1.5 1.86H69.4Zm9.1 5.94h-1.092l-4.392-6.66V123h-1.092v-8.376h1.092l4.392 6.648v-6.648H78.5V123Zm2.474-8.364V123H79.88v-8.364h1.092ZM88.93 123h-1.092l-4.392-6.66V123h-1.092v-8.376h1.092l4.392 6.648v-6.648h1.092V123Zm7.717-5.94a2.563 2.563 0 0 0-1.008-1.128c-.44-.272-.952-.408-1.536-.408-.584 0-1.112.136-1.584.408a2.842 2.842 0 0 0-1.104 1.152c-.264.496-.396 1.072-.396 1.728 0 .656.132 1.232.396 1.728.272.496.64.88 1.104 1.152.472.264 1 .396 1.584.396.816 0 1.488-.244 2.016-.732s.836-1.148.924-1.98h-3.336v-.888h4.5v.84a4.193 4.193 0 0 1-.648 1.896 4.074 4.074 0 0 1-1.452 1.356c-.6.328-1.268.492-2.004.492-.776 0-1.484-.18-2.124-.54a4.097 4.097 0 0 1-1.524-1.524c-.368-.648-.552-1.38-.552-2.196 0-.816.184-1.548.552-2.196a3.984 3.984 0 0 1 1.524-1.524 4.185 4.185 0 0 1 2.124-.552c.888 0 1.672.22 2.352.66.688.44 1.188 1.06 1.5 1.86h-1.308Zm10.835.024c0 .696-.24 1.276-.72 1.74-.472.456-1.196.684-2.172.684h-1.608V123h-1.092v-8.364h2.7c.944 0 1.66.228 2.148.684.496.456.744 1.044.744 1.764Zm-2.892 1.524c.608 0 1.056-.132 1.344-.396.288-.264.432-.64.432-1.128 0-1.032-.592-1.548-1.776-1.548h-1.608v3.072h1.608Zm8.713 2.532h-3.648l-.672 1.86h-1.152l3.024-8.316h1.26l3.012 8.316h-1.152l-.672-1.86Zm-.312-.888-1.512-4.224-1.512 4.224h3.024Zm9.31-3.192a2.563 2.563 0 0 0-1.008-1.128c-.44-.272-.952-.408-1.536-.408-.584 0-1.112.136-1.584.408a2.842 2.842 0 0 0-1.104 1.152c-.264.496-.396 1.072-.396 1.728 0 .656.132 1.232.396 1.728.272.496.64.88 1.104 1.152.472.264 1 .396 1.584.396.816 0 1.488-.244 2.016-.732s.836-1.148.924-1.98h-3.336v-.888h4.5v.84a4.193 4.193 0 0 1-.648 1.896 4.074 4.074 0 0 1-1.452 1.356c-.6.328-1.268.492-2.004.492-.776 0-1.484-.18-2.124-.54a4.097 4.097 0 0 1-1.524-1.524c-.368-.648-.552-1.38-.552-2.196 0-.816.184-1.548.552-2.196a3.984 3.984 0 0 1 1.524-1.524 4.185 4.185 0 0 1 2.124-.552c.888 0 1.672.22 2.352.66.688.44 1.188 1.06 1.5 1.86h-1.308Zm3.616-1.536v2.796h3.048v.9h-3.048v2.88h3.408v.9h-4.5v-8.376h4.5v.9h-3.408ZM55.374 139.14h-3.649l-.672 1.86h-1.151l3.023-8.316h1.26L57.197 141h-1.152l-.672-1.86Zm-.313-.888-1.511-4.224-1.512 4.224h3.024Zm8.566-3.168c0 .696-.24 1.276-.72 1.74-.472.456-1.196.684-2.172.684h-1.608V141h-1.092v-8.364h2.7c.944 0 1.66.228 2.148.684.496.456.744 1.044.744 1.764Zm-2.892 1.524c.608 0 1.056-.132 1.344-.396.288-.264.432-.64.432-1.128 0-1.032-.592-1.548-1.776-1.548h-1.608v3.072h1.608Zm9.362-1.524c0 .696-.24 1.276-.72 1.74-.472.456-1.196.684-2.172.684h-1.608V141h-1.092v-8.364h2.7c.944 0 1.66.228 2.148.684.496.456.744 1.044.744 1.764Zm-2.892 1.524c.608 0 1.056-.132 1.344-.396.288-.264.432-.64.432-1.128 0-1.032-.592-1.548-1.776-1.548h-1.608v3.072h1.608Zm4.86 3.504h2.929V141h-4.02v-8.364h1.092v7.476Zm4.7-7.476V141h-1.091v-8.364h1.091Zm.974 4.176c0-.816.184-1.548.552-2.196a4.012 4.012 0 0 1 1.5-1.536 4.185 4.185 0 0 1 2.124-.552c.912 0 1.708.22 2.388.66.68.44 1.176 1.064 1.488 1.872h-1.308a2.614 2.614 0 0 0-1.008-1.164c-.432-.272-.952-.408-1.56-.408a3.05 3.05 0 0 0-1.572.408c-.464.272-.828.66-1.092 1.164-.264.496-.396 1.08-.396 1.752 0 .664.132 1.248.396 1.752.264.496.628.88 1.092 1.152a3.05 3.05 0 0 0 1.572.408c.608 0 1.128-.132 1.56-.396.44-.272.776-.66 1.008-1.164h1.308c-.312.8-.808 1.42-1.488 1.86-.68.432-1.476.648-2.388.648-.776 0-1.484-.18-2.124-.54a4.035 4.035 0 0 1-1.5-1.524c-.368-.648-.552-1.38-.552-2.196Zm14.141 2.328h-3.648L87.56 141h-1.152l3.024-8.316h1.26L93.704 141h-1.152l-.672-1.86Zm-.312-.888-1.512-4.224-1.512 4.224h3.024Zm8.122-5.616v.888h-2.28V141h-1.092v-7.476h-2.292v-.888h5.664Zm1.956 0V141h-1.092v-8.364h1.092Zm5.173 8.448c-.776 0-1.484-.18-2.124-.54a4.097 4.097 0 0 1-1.524-1.524c-.368-.656-.552-1.392-.552-2.208 0-.816.184-1.548.552-2.196a3.984 3.984 0 0 1 1.524-1.524 4.185 4.185 0 0 1 2.124-.552c.784 0 1.496.184 2.136.552.64.36 1.144.864 1.512 1.512.368.648.552 1.384.552 2.208 0 .824-.184 1.56-.552 2.208a4.01 4.01 0 0 1-1.512 1.524c-.64.36-1.352.54-2.136.54Zm0-.948a3.05 3.05 0 0 0 1.572-.408 2.82 2.82 0 0 0 1.104-1.164c.272-.504.408-1.088.408-1.752 0-.672-.136-1.256-.408-1.752a2.844 2.844 0 0 0-1.092-1.164 3.073 3.073 0 0 0-1.584-.408c-.592 0-1.12.136-1.584.408-.464.272-.832.66-1.104 1.164-.264.496-.396 1.08-.396 1.752 0 .664.132 1.248.396 1.752.272.504.64.892 1.104 1.164.472.272 1 .408 1.584.408Zm11.738.864h-1.092l-4.392-6.66V141h-1.092v-8.376h1.092l4.392 6.648v-6.648h1.092V141Z"/>
</svg>
