<svg xmlns="http://www.w3.org/2000/svg" width="88" height="96" fill="none" viewBox="0 0 88 96">
  <path fill="#fff" d="M27.235 36.035C13.296 55.937 9.503 77.325 18.76 83.807c9.259 6.481 28.063-4.398 42.002-24.3 13.938-19.901 17.732-41.29 8.473-47.771-9.259-6.482-28.063 4.398-42.002 24.3Zm30.053 21.04c-11.05 15.776-25.956 24.4-33.295 19.262-7.34-5.138-4.333-22.092 6.716-37.869 11.05-15.776 25.956-24.4 33.296-19.263 7.34 5.139 4.332 22.093-6.717 37.87Z"/>
  <path fill="#fff" d="M60.766 36.035c13.938 19.902 17.731 41.29 8.473 47.772-9.259 6.481-28.063-4.398-42.002-24.3C13.3 39.606 9.506 18.217 18.764 11.736c9.259-6.482 28.063 4.398 42.002 24.3Zm-30.054 21.04c11.05 15.776 25.956 24.4 33.295 19.262 7.34-5.138 4.333-22.092-6.716-37.869-11.05-15.776-25.956-24.4-33.296-19.263-7.34 5.139-4.332 22.093 6.717 37.87Z"/>
  <path fill="#fff" d="M44 27.31c24.3 0 44 9.161 44 20.462 0 11.3-19.7 20.46-44 20.46s-44-9.16-44-20.46S19.7 27.31 44 27.31Zm0 36.681c19.263 0 34.88-7.262 34.88-16.22 0-8.958-15.617-16.22-34.88-16.22S9.12 38.814 9.12 47.772 24.737 63.992 44 63.992Z"/>
  <ellipse cx="45.281" cy="48.472" fill="#fff" rx="8.207" ry="8.206"/>
  <path fill="#00D8FF" d="M26.245 34.732C12.814 53.914 9.158 74.528 18.08 80.776c8.922 6.247 27.043-4.239 40.474-23.42 13.431-19.183 17.087-39.797 8.165-46.044-8.922-6.248-27.043 4.238-40.474 23.42Zm28.96 20.278C44.558 70.216 30.193 78.528 23.121 73.576c-7.073-4.952-4.175-21.293 6.473-36.5C40.24 21.872 54.605 13.56 61.678 18.512c7.073 4.952 4.175 21.293-6.473 36.5Z"/>
  <path fill="#00D8FF" d="M58.555 34.732c13.432 19.182 17.087 39.796 8.166 46.044-8.922 6.247-27.043-4.239-40.475-23.42C12.815 38.172 9.16 17.558 18.081 11.311c8.922-6.248 27.043 4.238 40.474 23.42ZM29.595 55.01c10.647 15.206 25.012 23.518 32.084 18.566 7.073-4.952 4.175-21.293-6.472-36.5C44.559 21.872 30.195 13.56 23.122 18.512c-7.072 4.952-4.174 21.293 6.473 36.5Z"/>
  <path fill="#00D8FF" d="M42.4 26.323c23.417 0 42.4 8.829 42.4 19.72 0 10.892-18.983 19.721-42.4 19.721-23.417 0-42.4-8.829-42.4-19.72 0-10.892 18.983-19.721 42.4-19.721Zm0 35.354c18.563 0 33.611-7 33.611-15.633 0-8.634-15.048-15.634-33.611-15.634-18.563 0-33.611 7-33.611 15.634 0 8.633 15.048 15.633 33.611 15.633Z"/>
  <circle cx="43.634" cy="46.719" r="7.909" fill="#00D8FF"/>
</svg>
