<svg xmlns="http://www.w3.org/2000/svg" width="76" height="49" fill="none" viewBox="0 0 76 49">
  <path fill="#fff" fill-rule="evenodd" d="M38 4C27.87 4 21.536 9 19 19c3.802-4.998 8.234-6.873 13.297-5.624 2.895.712 4.948 2.781 7.25 5.071 3.71 3.733 8.04 8.05 17.453 8.05 10.13 0 16.464-5 19-15-3.797 5.002-8.23 6.877-13.297 5.624-2.895-.712-4.948-2.781-7.25-5.071C51.73 8.297 47.42 4 38 4ZM19 26.497c-10.13 0-16.464 5-19 15 3.806-4.998 8.238-6.873 13.297-5.624 2.895.712 4.948 2.781 7.25 5.078C24.256 44.676 28.586 49 38 49c10.13 0 16.464-5 19-15-3.797 4.998-8.23 6.869-13.297 5.612-2.895-.712-4.948-2.782-7.25-5.072-3.71-3.733-8.04-8.055-17.453-8.055v.012Z" clip-rule="evenodd"/>
  <path fill="#06B6D4" fill-rule="evenodd" d="M34.5 0c-9.198 0-14.948 5-17.25 15 3.451-4.998 7.476-6.873 12.073-5.624 2.628.712 4.492 2.781 6.58 5.071 3.37 3.733 7.3 8.05 15.847 8.05 9.198 0 14.948-5 17.25-15-3.448 5.002-7.472 6.877-12.073 5.624-2.628-.712-4.492-2.781-6.58-5.071C46.965 4.298 43.051 0 34.5 0ZM17.25 22.497c-9.198 0-14.948 5-17.25 15 3.455-4.998 7.48-6.873 12.073-5.624 2.628.712 4.492 2.781 6.58 5.077 3.37 3.727 7.3 8.05 15.847 8.05 9.198 0 14.948-5 17.25-15-3.448 4.998-7.472 6.869-12.073 5.612-2.628-.712-4.492-2.782-6.58-5.072-3.37-3.733-7.3-8.055-15.847-8.055v.012Z" clip-rule="evenodd"/>
</svg>
