<svg xmlns="http://www.w3.org/2000/svg" width="211" height="116" fill="none" viewBox="0 0 211 116">
  <rect width="91" height="82" x="63.496" y="3.697" fill="#fff" rx="9" transform="rotate(3.719 63.496 3.697)"/>
  <rect width="204" height="36" x="4.475" y="32.931" fill="#fff" rx="9" transform="rotate(3.719 4.475 32.93)"/>
  <rect width="113" height="51" x="49.211" y="53.876" fill="#fff" rx="9" transform="rotate(3.719 49.211 53.876)"/>
  <rect width="91" height="82" x="57" y="10" fill="#EC3D64" rx="9"/>
  <rect width="204" height="36" x="1" y="42" fill="#EC3D64" rx="9"/>
  <rect width="113" height="51" x="46" y="60" fill="#EC3D64" rx="9"/>
  <path fill="#fff" d="M74.087 17.555v11.861c0 1.102.252 1.953.754 2.552.522.6 1.305.899 2.35.899 1.043 0 1.826-.3 2.348-.899.542-.619.812-1.47.812-2.552V17.555h5.684v11.861c0 1.875-.396 3.48-1.189 4.814a7.69 7.69 0 0 1-3.248 2.987c-1.353.657-2.861.986-4.524.986-1.662 0-3.151-.329-4.466-.986-1.295-.677-2.32-1.672-3.074-2.987-.734-1.315-1.102-2.92-1.102-4.814V17.555h5.655ZM95.72 38.203c-2.378 0-4.33-.56-5.858-1.682-1.528-1.14-2.35-2.765-2.465-4.872h6.06c.059.715.271 1.237.639 1.566.367.329.84.493 1.42.493.523 0 .948-.126 1.277-.377.348-.27.522-.638.522-1.102 0-.6-.28-1.063-.841-1.392-.56-.329-1.47-.696-2.726-1.102-1.334-.445-2.417-.87-3.248-1.276-.812-.425-1.528-1.034-2.146-1.827-.6-.812-.9-1.866-.9-3.161 0-1.315.33-2.436.987-3.364.657-.947 1.566-1.663 2.726-2.146 1.16-.483 2.475-.725 3.944-.725 2.378 0 4.272.56 5.684 1.682 1.43 1.102 2.194 2.658 2.291 4.669h-6.177c-.02-.619-.213-1.083-.58-1.392-.348-.31-.803-.464-1.363-.464-.425 0-.773.126-1.044.377-.27.251-.406.609-.406 1.073 0 .387.145.725.435 1.015.31.27.686.512 1.13.725.445.193 1.103.445 1.973.754 1.295.445 2.359.89 3.19 1.334a6.165 6.165 0 0 1 2.175 1.827c.618.773.928 1.76.928 2.958 0 1.218-.31 2.31-.928 3.277-.6.967-1.479 1.73-2.64 2.291-1.14.56-2.493.841-4.06.841Zm14.793-16.095v3.335h6.525v4.321h-6.525v3.683h7.395V38h-13.079V17.555h13.079v4.553h-7.395ZM129.909 38l-4.06-7.54h-.609V38h-5.684V17.555h8.961c1.643 0 3.035.29 4.176.87 1.141.56 2.001 1.344 2.581 2.349.58.986.87 2.098.87 3.335 0 1.392-.387 2.62-1.16 3.683-.754 1.044-1.866 1.788-3.335 2.233L136.26 38h-6.351Zm-4.669-11.426h2.813c.773 0 1.353-.184 1.74-.551.387-.367.58-.899.58-1.595 0-.657-.203-1.17-.609-1.537-.387-.387-.957-.58-1.711-.58h-2.813v4.263ZM15.716 54.108v3.335h6.525v4.321h-6.525v3.683h7.395V70H10.03V49.555h13.08v4.553h-7.395ZM37.548 70l-3.973-5.771L30.182 70h-6.467l6.641-10.469-6.873-9.976h6.7l3.856 5.626 3.306-5.626h6.467L37.258 59.85 44.248 70h-6.7Zm23.643-13.63c0 1.237-.29 2.368-.87 3.393-.56 1.005-1.421 1.817-2.581 2.436-1.14.6-2.543.899-4.205.899h-2.813V70h-5.684V49.555h8.497c1.643 0 3.035.29 4.176.87 1.16.58 2.03 1.382 2.61 2.407.58 1.025.87 2.204.87 3.538Zm-8.207 2.204c1.604 0 2.407-.735 2.407-2.204 0-1.489-.803-2.233-2.407-2.233h-2.262v4.437h2.262Zm15.014-4.466v3.335h6.525v4.321h-6.525v3.683h7.395V70H62.314V49.555h13.08v4.553h-7.396ZM87.395 70l-4.06-7.54h-.609V70h-5.684V49.555h8.961c1.643 0 3.035.29 4.176.87 1.14.56 2.001 1.344 2.581 2.349.58.986.87 2.098.87 3.335 0 1.392-.387 2.62-1.16 3.683-.754 1.044-1.866 1.788-3.335 2.233L93.746 70h-6.351Zm-4.669-11.426h2.813c.773 0 1.353-.184 1.74-.551.387-.367.58-.899.58-1.595 0-.657-.203-1.17-.609-1.537-.387-.387-.957-.58-1.711-.58h-2.813v4.263Zm39.967-9.019V70h-5.684V49.555h5.684Zm7.761 4.553v3.335h6.525v4.321h-6.525v3.683h7.395V70H124.77V49.555h13.079v4.553h-7.395ZM158.434 70h-5.684l-7.569-11.426V70h-5.684V49.555h5.684l7.569 11.571V49.555h5.684V70Zm1.382-10.266c0-2.01.416-3.799 1.247-5.365.851-1.585 2.049-2.813 3.596-3.683 1.547-.89 3.325-1.334 5.336-1.334 2.552 0 4.698.686 6.438 2.059 1.74 1.353 2.861 3.2 3.364 5.539h-6.119c-.367-.773-.88-1.363-1.537-1.769-.638-.406-1.382-.609-2.233-.609-1.315 0-2.368.474-3.161 1.421-.773.928-1.16 2.175-1.16 3.741 0 1.585.387 2.852 1.16 3.799.793.928 1.846 1.392 3.161 1.392.851 0 1.595-.203 2.233-.609.657-.406 1.17-.996 1.537-1.769h6.119c-.503 2.34-1.624 4.195-3.364 5.568-1.74 1.353-3.886 2.03-6.438 2.03-2.011 0-3.789-.435-5.336-1.305a9.28 9.28 0 0 1-3.596-3.683c-.831-1.585-1.247-3.393-1.247-5.423Zm27.197-5.626v3.335h6.525v4.321h-6.525v3.683h7.395V70h-13.079V49.555h13.079v4.553h-7.395ZM60.495 81.555c2.146 0 4.021.435 5.626 1.305 1.624.85 2.87 2.05 3.74 3.596.87 1.547 1.306 3.316 1.306 5.307 0 1.972-.445 3.731-1.334 5.278-.87 1.547-2.117 2.765-3.741 3.654-1.605.87-3.47 1.305-5.597 1.305h-8.091V81.555h8.09Zm-.435 15.428c1.663 0 2.968-.454 3.915-1.363.947-.909 1.42-2.194 1.42-3.857 0-1.682-.473-2.977-1.42-3.886-.947-.928-2.252-1.392-3.915-1.392h-1.972v10.498h1.972Zm18.193-10.875v3.335h6.525v4.321h-6.525v3.683h7.395V102H72.57V81.555h13.08v4.553h-7.396Zm16.758 16.095c-2.378 0-4.33-.561-5.858-1.682-1.528-1.14-2.35-2.765-2.465-4.872h6.06c.059.715.271 1.237.639 1.566.367.329.84.493 1.42.493.523 0 .948-.126 1.277-.377.348-.27.522-.638.522-1.102 0-.6-.28-1.063-.841-1.392-.56-.329-1.47-.696-2.726-1.102-1.334-.445-2.417-.87-3.248-1.276-.812-.425-1.528-1.034-2.146-1.827-.6-.812-.9-1.866-.9-3.161 0-1.315.33-2.436.987-3.364.657-.947 1.566-1.663 2.726-2.146 1.16-.483 2.474-.725 3.944-.725 2.378 0 4.272.56 5.684 1.682 1.43 1.102 2.194 2.658 2.291 4.669H96.2c-.02-.619-.213-1.083-.58-1.392-.348-.31-.803-.464-1.363-.464-.426 0-.774.126-1.044.377s-.406.609-.406 1.073c0 .387.145.725.435 1.015.31.27.686.512 1.13.725.445.193 1.103.445 1.973.754 1.295.445 2.358.89 3.19 1.334a6.164 6.164 0 0 1 2.175 1.827c.618.773.928 1.76.928 2.958 0 1.218-.31 2.31-.928 3.277-.6.967-1.479 1.73-2.64 2.291-1.14.561-2.493.841-4.06.841Zm14.793-20.648V102h-5.684V81.555h5.684Zm15.127 6.728a3.272 3.272 0 0 0-1.363-1.247c-.561-.29-1.228-.435-2.001-.435-1.431 0-2.562.464-3.393 1.392-.812.928-1.218 2.175-1.218 3.741 0 1.76.435 3.103 1.305 4.031.889.909 2.175 1.363 3.857 1.363 1.991 0 3.412-.899 4.263-2.697h-5.713v-4.089h10.614v5.51c-.445 1.083-1.102 2.098-1.972 3.045-.851.947-1.933 1.73-3.248 2.349-1.315.599-2.813.899-4.495.899-2.049 0-3.867-.435-5.452-1.305a9.425 9.425 0 0 1-3.654-3.683c-.851-1.585-1.276-3.393-1.276-5.423 0-2.01.425-3.799 1.276-5.365a9.178 9.178 0 0 1 3.654-3.683c1.566-.89 3.374-1.334 5.423-1.334 2.571 0 4.698.619 6.38 1.856 1.682 1.237 2.726 2.929 3.132 5.075h-6.119ZM151.606 102h-5.684l-7.569-11.426V102h-5.684V81.555h5.684l7.569 11.571V81.555h5.684V102Z"/>
  <path stroke="#fff" stroke-width="4" d="M96 59h18"/>
</svg>
